G04 #@! TF.FileFunction,Copper,L1,Top,Signal*
%FSLAX46Y46*%
G04 Gerber Fmt 4.6, Leading zero omitted, Abs format (unit mm)*
G04 Created by KiCad (PCBNEW (2014-12-04 BZR 5312)-product) date 8/01/2015 8:05:32 PM*
%MOMM*%
G01*
G04 APERTURE LIST*
%ADD10C,0.100000*%
%ADD11C,0.381000*%
%ADD12C,1.600000*%
%ADD13R,6.350000X5.080000*%
%ADD14R,2.540000X1.270000*%
%ADD15R,2.032000X2.032000*%
%ADD16O,2.032000X2.032000*%
%ADD17R,2.032000X1.727200*%
%ADD18O,2.032000X1.727200*%
%ADD19C,1.524000*%
%ADD20R,0.900000X1.200000*%
%ADD21R,1.300000X1.500000*%
%ADD22R,1.500000X1.300000*%
%ADD23R,1.727200X2.032000*%
%ADD24O,1.727200X2.032000*%
%ADD25C,1.998980*%
%ADD26C,0.889000*%
%ADD27C,0.700000*%
%ADD28C,0.254000*%
%ADD29C,0.635000*%
G04 APERTURE END LIST*
D10*
D11*
X185674000Y-78740000D02*
X187198000Y-78740000D01*
X170688000Y-91440000D02*
X172212000Y-91440000D01*
X170688000Y-93345000D02*
X172212000Y-93345000D01*
X188214000Y-91694000D02*
X189738000Y-91694000D01*
X188214000Y-93726000D02*
X189738000Y-93726000D01*
D12*
X152400000Y-60960000D03*
X154940000Y-60960000D03*
X152400000Y-63500000D03*
X154940000Y-63500000D03*
X121920000Y-86360000D03*
X124460000Y-86360000D03*
X127000000Y-86360000D03*
X129540000Y-86360000D03*
X121920000Y-88900000D03*
X124460000Y-88900000D03*
X127000000Y-88900000D03*
X129540000Y-88900000D03*
X121920000Y-91440000D03*
X124460000Y-91440000D03*
X127000000Y-91440000D03*
X129540000Y-91440000D03*
X121920000Y-93980000D03*
X124460000Y-93980000D03*
X127000000Y-93980000D03*
X129540000Y-93980000D03*
D13*
X113284000Y-61772800D03*
X113284000Y-69392800D03*
X113284000Y-77012800D03*
X113284000Y-84632800D03*
X113284000Y-92252800D03*
D14*
X195580000Y-59944000D03*
X195580000Y-61944000D03*
X195580000Y-63944000D03*
X195580000Y-65944000D03*
X195580000Y-67944000D03*
X195580000Y-69944000D03*
X195580000Y-71944000D03*
X195580000Y-73944000D03*
X195580000Y-75944000D03*
X195580000Y-77944000D03*
X195580000Y-79944000D03*
X195580000Y-81944000D03*
X195580000Y-83944000D03*
X195580000Y-85944000D03*
D15*
X166878000Y-58928000D03*
D16*
X169418000Y-58928000D03*
D17*
X159512000Y-63754000D03*
D18*
X159512000Y-66294000D03*
X159512000Y-68834000D03*
X159512000Y-71374000D03*
X159512000Y-73914000D03*
X159512000Y-76454000D03*
X159512000Y-78994000D03*
X159512000Y-81534000D03*
D17*
X162560000Y-63754000D03*
D18*
X162560000Y-66294000D03*
X162560000Y-68834000D03*
X162560000Y-71374000D03*
X162560000Y-73914000D03*
X162560000Y-76454000D03*
X162560000Y-78994000D03*
X162560000Y-81534000D03*
D10*
G36*
X179921984Y-80066616D02*
X180999614Y-81144246D01*
X180712246Y-81431614D01*
X179634616Y-80353984D01*
X179921984Y-80066616D01*
X179921984Y-80066616D01*
G37*
G36*
X180487740Y-79500860D02*
X181565370Y-80578490D01*
X181278002Y-80865858D01*
X180200372Y-79788228D01*
X180487740Y-79500860D01*
X180487740Y-79500860D01*
G37*
G36*
X181053497Y-78935104D02*
X182131127Y-80012734D01*
X181843759Y-80300102D01*
X180766129Y-79222472D01*
X181053497Y-78935104D01*
X181053497Y-78935104D01*
G37*
G36*
X181619253Y-78369348D02*
X182696883Y-79446978D01*
X182409515Y-79734346D01*
X181331885Y-78656716D01*
X181619253Y-78369348D01*
X181619253Y-78369348D01*
G37*
G36*
X182185009Y-77803592D02*
X183262639Y-78881222D01*
X182975271Y-79168590D01*
X181897641Y-78090960D01*
X182185009Y-77803592D01*
X182185009Y-77803592D01*
G37*
G36*
X182750765Y-77237836D02*
X183828395Y-78315466D01*
X183541027Y-78602834D01*
X182463397Y-77525204D01*
X182750765Y-77237836D01*
X182750765Y-77237836D01*
G37*
G36*
X179356228Y-80632372D02*
X180433858Y-81710002D01*
X180146490Y-81997370D01*
X179068860Y-80919740D01*
X179356228Y-80632372D01*
X179356228Y-80632372D01*
G37*
G36*
X178790472Y-81198129D02*
X179868102Y-82275759D01*
X179580734Y-82563127D01*
X178503104Y-81485497D01*
X178790472Y-81198129D01*
X178790472Y-81198129D01*
G37*
G36*
X178224716Y-81763885D02*
X179302346Y-82841515D01*
X179014978Y-83128883D01*
X177937348Y-82051253D01*
X178224716Y-81763885D01*
X178224716Y-81763885D01*
G37*
G36*
X177658960Y-82329641D02*
X178736590Y-83407271D01*
X178449222Y-83694639D01*
X177371592Y-82617009D01*
X177658960Y-82329641D01*
X177658960Y-82329641D01*
G37*
G36*
X177093204Y-82895397D02*
X178170834Y-83973027D01*
X177883466Y-84260395D01*
X176805836Y-83182765D01*
X177093204Y-82895397D01*
X177093204Y-82895397D01*
G37*
G36*
X171839754Y-71984386D02*
X172917384Y-73062016D01*
X172630016Y-73349384D01*
X171552386Y-72271754D01*
X171839754Y-71984386D01*
X171839754Y-71984386D01*
G37*
G36*
X172405510Y-71418630D02*
X173483140Y-72496260D01*
X173195772Y-72783628D01*
X172118142Y-71705998D01*
X172405510Y-71418630D01*
X172405510Y-71418630D01*
G37*
G36*
X172971266Y-70852873D02*
X174048896Y-71930503D01*
X173761528Y-72217871D01*
X172683898Y-71140241D01*
X172971266Y-70852873D01*
X172971266Y-70852873D01*
G37*
G36*
X173537022Y-70287117D02*
X174614652Y-71364747D01*
X174327284Y-71652115D01*
X173249654Y-70574485D01*
X173537022Y-70287117D01*
X173537022Y-70287117D01*
G37*
G36*
X174102778Y-69721361D02*
X175180408Y-70798991D01*
X174893040Y-71086359D01*
X173815410Y-70008729D01*
X174102778Y-69721361D01*
X174102778Y-69721361D01*
G37*
G36*
X174668534Y-69155605D02*
X175746164Y-70233235D01*
X175458796Y-70520603D01*
X174381166Y-69442973D01*
X174668534Y-69155605D01*
X174668534Y-69155605D01*
G37*
G36*
X171273998Y-72550142D02*
X172351628Y-73627772D01*
X172064260Y-73915140D01*
X170986630Y-72837510D01*
X171273998Y-72550142D01*
X171273998Y-72550142D01*
G37*
G36*
X170708241Y-73115898D02*
X171785871Y-74193528D01*
X171498503Y-74480896D01*
X170420873Y-73403266D01*
X170708241Y-73115898D01*
X170708241Y-73115898D01*
G37*
G36*
X170142485Y-73681654D02*
X171220115Y-74759284D01*
X170932747Y-75046652D01*
X169855117Y-73969022D01*
X170142485Y-73681654D01*
X170142485Y-73681654D01*
G37*
G36*
X169576729Y-74247410D02*
X170654359Y-75325040D01*
X170366991Y-75612408D01*
X169289361Y-74534778D01*
X169576729Y-74247410D01*
X169576729Y-74247410D01*
G37*
G36*
X169010973Y-74813166D02*
X170088603Y-75890796D01*
X169801235Y-76178164D01*
X168723605Y-75100534D01*
X169010973Y-74813166D01*
X169010973Y-74813166D01*
G37*
G36*
X180712246Y-71984386D02*
X180999614Y-72271754D01*
X179921984Y-73349384D01*
X179634616Y-73062016D01*
X180712246Y-71984386D01*
X180712246Y-71984386D01*
G37*
G36*
X172630016Y-80066616D02*
X172917384Y-80353984D01*
X171839754Y-81431614D01*
X171552386Y-81144246D01*
X172630016Y-80066616D01*
X172630016Y-80066616D01*
G37*
G36*
X180146490Y-71418630D02*
X180433858Y-71705998D01*
X179356228Y-72783628D01*
X179068860Y-72496260D01*
X180146490Y-71418630D01*
X180146490Y-71418630D01*
G37*
G36*
X172064260Y-79500860D02*
X172351628Y-79788228D01*
X171273998Y-80865858D01*
X170986630Y-80578490D01*
X172064260Y-79500860D01*
X172064260Y-79500860D01*
G37*
G36*
X171498503Y-78935104D02*
X171785871Y-79222472D01*
X170708241Y-80300102D01*
X170420873Y-80012734D01*
X171498503Y-78935104D01*
X171498503Y-78935104D01*
G37*
G36*
X179580734Y-70852873D02*
X179868102Y-71140241D01*
X178790472Y-72217871D01*
X178503104Y-71930503D01*
X179580734Y-70852873D01*
X179580734Y-70852873D01*
G37*
G36*
X179014978Y-70287117D02*
X179302346Y-70574485D01*
X178224716Y-71652115D01*
X177937348Y-71364747D01*
X179014978Y-70287117D01*
X179014978Y-70287117D01*
G37*
G36*
X170932747Y-78369348D02*
X171220115Y-78656716D01*
X170142485Y-79734346D01*
X169855117Y-79446978D01*
X170932747Y-78369348D01*
X170932747Y-78369348D01*
G37*
G36*
X170366991Y-77803592D02*
X170654359Y-78090960D01*
X169576729Y-79168590D01*
X169289361Y-78881222D01*
X170366991Y-77803592D01*
X170366991Y-77803592D01*
G37*
G36*
X178449222Y-69721361D02*
X178736590Y-70008729D01*
X177658960Y-71086359D01*
X177371592Y-70798991D01*
X178449222Y-69721361D01*
X178449222Y-69721361D01*
G37*
G36*
X177883466Y-69155605D02*
X178170834Y-69442973D01*
X177093204Y-70520603D01*
X176805836Y-70233235D01*
X177883466Y-69155605D01*
X177883466Y-69155605D01*
G37*
G36*
X169801235Y-77237836D02*
X170088603Y-77525204D01*
X169010973Y-78602834D01*
X168723605Y-78315466D01*
X169801235Y-77237836D01*
X169801235Y-77237836D01*
G37*
G36*
X173195772Y-80632372D02*
X173483140Y-80919740D01*
X172405510Y-81997370D01*
X172118142Y-81710002D01*
X173195772Y-80632372D01*
X173195772Y-80632372D01*
G37*
G36*
X181278002Y-72550142D02*
X181565370Y-72837510D01*
X180487740Y-73915140D01*
X180200372Y-73627772D01*
X181278002Y-72550142D01*
X181278002Y-72550142D01*
G37*
G36*
X181843759Y-73115898D02*
X182131127Y-73403266D01*
X181053497Y-74480896D01*
X180766129Y-74193528D01*
X181843759Y-73115898D01*
X181843759Y-73115898D01*
G37*
G36*
X173761528Y-81198129D02*
X174048896Y-81485497D01*
X172971266Y-82563127D01*
X172683898Y-82275759D01*
X173761528Y-81198129D01*
X173761528Y-81198129D01*
G37*
G36*
X174327284Y-81763885D02*
X174614652Y-82051253D01*
X173537022Y-83128883D01*
X173249654Y-82841515D01*
X174327284Y-81763885D01*
X174327284Y-81763885D01*
G37*
G36*
X182409515Y-73681654D02*
X182696883Y-73969022D01*
X181619253Y-75046652D01*
X181331885Y-74759284D01*
X182409515Y-73681654D01*
X182409515Y-73681654D01*
G37*
G36*
X182975271Y-74247410D02*
X183262639Y-74534778D01*
X182185009Y-75612408D01*
X181897641Y-75325040D01*
X182975271Y-74247410D01*
X182975271Y-74247410D01*
G37*
G36*
X174893040Y-82329641D02*
X175180408Y-82617009D01*
X174102778Y-83694639D01*
X173815410Y-83407271D01*
X174893040Y-82329641D01*
X174893040Y-82329641D01*
G37*
G36*
X175458796Y-82895397D02*
X175746164Y-83182765D01*
X174668534Y-84260395D01*
X174381166Y-83973027D01*
X175458796Y-82895397D01*
X175458796Y-82895397D01*
G37*
G36*
X183541027Y-74813166D02*
X183828395Y-75100534D01*
X182750765Y-76178164D01*
X182463397Y-75890796D01*
X183541027Y-74813166D01*
X183541027Y-74813166D01*
G37*
D19*
X192786000Y-59944000D03*
X190246000Y-59944000D03*
X192786000Y-61976000D03*
X190246000Y-61976000D03*
X192786000Y-64008000D03*
X190246000Y-64008000D03*
X192786000Y-66040000D03*
X190246000Y-66040000D03*
X192786000Y-68072000D03*
X190246000Y-68072000D03*
X192786000Y-70104000D03*
X190246000Y-70104000D03*
X192786000Y-72136000D03*
X190246000Y-72136000D03*
X192786000Y-74168000D03*
X190246000Y-74168000D03*
X185166000Y-78740000D03*
X187706000Y-78740000D03*
X170180000Y-91440000D03*
X172720000Y-91440000D03*
X170180000Y-93345000D03*
X172720000Y-93345000D03*
X187706000Y-91694000D03*
X190246000Y-91694000D03*
X187706000Y-93726000D03*
X190246000Y-93726000D03*
D20*
X178308000Y-85514000D03*
X178308000Y-87714000D03*
D21*
X176530000Y-85772000D03*
X176530000Y-88472000D03*
D20*
X179832000Y-85514000D03*
X179832000Y-87714000D03*
D21*
X181610000Y-85518000D03*
X181610000Y-88218000D03*
D22*
X185086000Y-76708000D03*
X187786000Y-76708000D03*
D21*
X174498000Y-88472000D03*
X174498000Y-85772000D03*
D17*
X159512000Y-84582000D03*
D18*
X159512000Y-87122000D03*
X159512000Y-89662000D03*
X159512000Y-92202000D03*
D17*
X162560000Y-84582000D03*
D18*
X162560000Y-87122000D03*
X162560000Y-89662000D03*
X162560000Y-92202000D03*
D23*
X181610000Y-58928000D03*
D24*
X179070000Y-58928000D03*
X176530000Y-58928000D03*
X173990000Y-58928000D03*
D21*
X172466000Y-88472000D03*
X172466000Y-85772000D03*
D25*
X117856000Y-60452000D03*
X117856000Y-68072000D03*
X117856000Y-75692000D03*
X117856000Y-83312000D03*
X117856000Y-90932000D03*
X117856000Y-62992000D03*
X117856000Y-70612000D03*
X117856000Y-78232000D03*
X117856000Y-85852000D03*
X117856000Y-93472000D03*
D12*
X121920000Y-76200000D03*
X124460000Y-76200000D03*
X127000000Y-76200000D03*
X129540000Y-76200000D03*
X121920000Y-78740000D03*
X124460000Y-78740000D03*
X127000000Y-78740000D03*
X129540000Y-78740000D03*
X121920000Y-81280000D03*
X124460000Y-81280000D03*
X127000000Y-81280000D03*
X129540000Y-81280000D03*
X121920000Y-83820000D03*
X124460000Y-83820000D03*
X127000000Y-83820000D03*
X129540000Y-83820000D03*
X121920000Y-66040000D03*
X124460000Y-66040000D03*
X127000000Y-66040000D03*
X129540000Y-66040000D03*
X121920000Y-68580000D03*
X124460000Y-68580000D03*
X127000000Y-68580000D03*
X129540000Y-68580000D03*
X121920000Y-71120000D03*
X124460000Y-71120000D03*
X127000000Y-71120000D03*
X129540000Y-71120000D03*
X121920000Y-73660000D03*
X124460000Y-73660000D03*
X127000000Y-73660000D03*
X129540000Y-73660000D03*
X132080000Y-66040000D03*
X134620000Y-66040000D03*
X137160000Y-66040000D03*
X139700000Y-66040000D03*
X132080000Y-68580000D03*
X134620000Y-68580000D03*
X137160000Y-68580000D03*
X139700000Y-68580000D03*
X132080000Y-71120000D03*
X134620000Y-71120000D03*
X137160000Y-71120000D03*
X139700000Y-71120000D03*
X132080000Y-73660000D03*
X134620000Y-73660000D03*
X137160000Y-73660000D03*
X139700000Y-73660000D03*
X132080000Y-76200000D03*
X134620000Y-76200000D03*
X137160000Y-76200000D03*
X139700000Y-76200000D03*
X132080000Y-78740000D03*
X134620000Y-78740000D03*
X137160000Y-78740000D03*
X139700000Y-78740000D03*
X132080000Y-81280000D03*
X134620000Y-81280000D03*
X137160000Y-81280000D03*
X139700000Y-81280000D03*
X132080000Y-83820000D03*
X134620000Y-83820000D03*
X137160000Y-83820000D03*
X139700000Y-83820000D03*
X132080000Y-86360000D03*
X134620000Y-86360000D03*
X137160000Y-86360000D03*
X139700000Y-86360000D03*
X132080000Y-88900000D03*
X134620000Y-88900000D03*
X137160000Y-88900000D03*
X139700000Y-88900000D03*
X132080000Y-91440000D03*
X134620000Y-91440000D03*
X137160000Y-91440000D03*
X139700000Y-91440000D03*
X132080000Y-93980000D03*
X134620000Y-93980000D03*
X137160000Y-93980000D03*
X139700000Y-93980000D03*
X142240000Y-66040000D03*
X144780000Y-66040000D03*
X147320000Y-66040000D03*
X149860000Y-66040000D03*
X142240000Y-68580000D03*
X144780000Y-68580000D03*
X147320000Y-68580000D03*
X149860000Y-68580000D03*
X142240000Y-71120000D03*
X144780000Y-71120000D03*
X147320000Y-71120000D03*
X149860000Y-71120000D03*
X142240000Y-73660000D03*
X144780000Y-73660000D03*
X147320000Y-73660000D03*
X149860000Y-73660000D03*
X142240000Y-76200000D03*
X144780000Y-76200000D03*
X147320000Y-76200000D03*
X149860000Y-76200000D03*
X142240000Y-78740000D03*
X144780000Y-78740000D03*
X147320000Y-78740000D03*
X149860000Y-78740000D03*
X142240000Y-81280000D03*
X144780000Y-81280000D03*
X147320000Y-81280000D03*
X149860000Y-81280000D03*
X142240000Y-83820000D03*
X144780000Y-83820000D03*
X147320000Y-83820000D03*
X149860000Y-83820000D03*
X142240000Y-86360000D03*
X144780000Y-86360000D03*
X147320000Y-86360000D03*
X149860000Y-86360000D03*
X142240000Y-88900000D03*
X144780000Y-88900000D03*
X147320000Y-88900000D03*
X149860000Y-88900000D03*
X142240000Y-91440000D03*
X144780000Y-91440000D03*
X147320000Y-91440000D03*
X149860000Y-91440000D03*
X142240000Y-93980000D03*
X144780000Y-93980000D03*
X147320000Y-93980000D03*
X149860000Y-93980000D03*
X121920000Y-60960000D03*
X124460000Y-60960000D03*
X127000000Y-60960000D03*
X129540000Y-60960000D03*
X121920000Y-63500000D03*
X124460000Y-63500000D03*
X127000000Y-63500000D03*
X129540000Y-63500000D03*
X132080000Y-60960000D03*
X134620000Y-60960000D03*
X137160000Y-60960000D03*
X139700000Y-60960000D03*
X132080000Y-63500000D03*
X134620000Y-63500000D03*
X137160000Y-63500000D03*
X139700000Y-63500000D03*
X142240000Y-60960000D03*
X144780000Y-60960000D03*
X147320000Y-60960000D03*
X149860000Y-60960000D03*
X142240000Y-63500000D03*
X144780000Y-63500000D03*
X147320000Y-63500000D03*
X149860000Y-63500000D03*
X152400000Y-93980000D03*
X152400000Y-91440000D03*
X152400000Y-88900000D03*
X152400000Y-86360000D03*
X154940000Y-93980000D03*
X154940000Y-91440000D03*
X154940000Y-88900000D03*
X154940000Y-86360000D03*
X152400000Y-83820000D03*
X152400000Y-81280000D03*
X152400000Y-78740000D03*
X152400000Y-76200000D03*
X154940000Y-83820000D03*
X154940000Y-81280000D03*
X154940000Y-78740000D03*
X154940000Y-76200000D03*
X152400000Y-73660000D03*
X152400000Y-71120000D03*
X152400000Y-68580000D03*
X152400000Y-66040000D03*
X154940000Y-73660000D03*
X154940000Y-71120000D03*
X154940000Y-68580000D03*
X154940000Y-66040000D03*
D26*
X171958000Y-74676000D03*
X186690000Y-75184000D03*
X184404000Y-87884000D03*
D27*
X173228000Y-65024000D03*
X171196000Y-65024000D03*
X169672000Y-64008000D03*
X168148000Y-62484000D03*
X170180000Y-62484000D03*
X171196000Y-63500000D03*
X173228000Y-63500000D03*
X175260000Y-63500000D03*
X176276000Y-62484000D03*
X177292000Y-63500000D03*
X177800000Y-62484000D03*
X177292000Y-60960000D03*
X174752000Y-60960000D03*
X173228000Y-60960000D03*
X177800000Y-67310000D03*
X180340000Y-67310000D03*
X182880000Y-67310000D03*
X185420000Y-67310000D03*
X185420000Y-64770000D03*
X182880000Y-64770000D03*
X180340000Y-64770000D03*
X182880000Y-62230000D03*
X185420000Y-62230000D03*
X187960000Y-59690000D03*
X185420000Y-59690000D03*
X190500000Y-79756000D03*
X189992000Y-81280000D03*
X189992000Y-82804000D03*
X189484000Y-84328000D03*
X183896000Y-89408000D03*
X183896000Y-90932000D03*
X182880000Y-91948000D03*
X181356000Y-91948000D03*
X179832000Y-91948000D03*
X178308000Y-91948000D03*
X176784000Y-91948000D03*
X175260000Y-91440000D03*
X177800000Y-90424000D03*
X179324000Y-90424000D03*
X180848000Y-90424000D03*
D26*
X184785000Y-74803000D03*
X179832000Y-88646000D03*
X178308000Y-88646000D03*
X176530000Y-89662000D03*
X174498000Y-89662000D03*
X189484000Y-76708000D03*
D27*
X171704000Y-60960000D03*
D26*
X179324000Y-69088000D03*
X191000000Y-78000000D03*
X181610000Y-89408000D03*
D27*
X172720000Y-68580000D03*
X171196000Y-68072000D03*
X180086000Y-83058000D03*
X181356000Y-83312000D03*
X182880000Y-83820000D03*
X183896000Y-83312000D03*
X184912000Y-82804000D03*
X185420000Y-81788000D03*
X186436000Y-81280000D03*
X172466000Y-83820000D03*
X171450000Y-84582000D03*
X170688000Y-83820000D03*
X170688000Y-85344000D03*
X176276000Y-80010000D03*
X165862000Y-61214000D03*
D28*
X114604800Y-60452000D02*
X113284000Y-61772800D01*
X114503200Y-62992000D02*
X113284000Y-61772800D01*
D29*
X114604800Y-60452000D02*
X113284000Y-61772800D01*
X117856000Y-60452000D02*
X114604800Y-60452000D01*
X114503200Y-62992000D02*
X113284000Y-61772800D01*
X117856000Y-62992000D02*
X114503200Y-62992000D01*
X114604800Y-68072000D02*
X113284000Y-69392800D01*
X117856000Y-68072000D02*
X114604800Y-68072000D01*
X114503200Y-70612000D02*
X113284000Y-69392800D01*
X117856000Y-70612000D02*
X114503200Y-70612000D01*
X114604800Y-75692000D02*
X113284000Y-77012800D01*
X117856000Y-75692000D02*
X114604800Y-75692000D01*
X114503200Y-78232000D02*
X113284000Y-77012800D01*
X117856000Y-78232000D02*
X114503200Y-78232000D01*
X114604800Y-83312000D02*
X113284000Y-84632800D01*
X117856000Y-83312000D02*
X114604800Y-83312000D01*
X114503200Y-85852000D02*
X113284000Y-84632800D01*
X117856000Y-85852000D02*
X114503200Y-85852000D01*
X114604800Y-90932000D02*
X113284000Y-92252800D01*
X117856000Y-90932000D02*
X114604800Y-90932000D01*
X114503200Y-93472000D02*
X113284000Y-92252800D01*
X117856000Y-93472000D02*
X114503200Y-93472000D01*
D28*
X192786000Y-59944000D02*
X195580000Y-59944000D01*
X190246000Y-59944000D02*
X189992000Y-59944000D01*
X189992000Y-59944000D02*
X186436000Y-63500000D01*
X186436000Y-63500000D02*
X186436000Y-68580000D01*
X186436000Y-68580000D02*
X184658010Y-70357990D01*
X184658010Y-70357990D02*
X179231473Y-70357990D01*
X179231473Y-70357990D02*
X178619847Y-70969616D01*
X195548000Y-61976000D02*
X195580000Y-61944000D01*
X192786000Y-61976000D02*
X195548000Y-61976000D01*
X190246000Y-61976000D02*
X189484000Y-61976000D01*
X189484000Y-61976000D02*
X186944000Y-64516000D01*
X186944000Y-64516000D02*
X186944000Y-69088000D01*
X186944000Y-69088000D02*
X185216808Y-70815192D01*
X185216808Y-70815192D02*
X179905783Y-70815192D01*
X179905783Y-70815192D02*
X179185603Y-71535372D01*
X195516000Y-64008000D02*
X195580000Y-63944000D01*
X192786000Y-64008000D02*
X195516000Y-64008000D01*
X190246000Y-64008000D02*
X189992000Y-64008000D01*
X189992000Y-64008000D02*
X187452000Y-66548000D01*
X187452000Y-66548000D02*
X187452000Y-69596000D01*
X187452000Y-69596000D02*
X185775606Y-71272394D01*
X185775606Y-71272394D02*
X180580094Y-71272394D01*
X180580094Y-71272394D02*
X179751359Y-72101129D01*
X195484000Y-66040000D02*
X195580000Y-65944000D01*
X192786000Y-66040000D02*
X195484000Y-66040000D01*
X190246000Y-66040000D02*
X189484000Y-66040000D01*
X189484000Y-66040000D02*
X187960000Y-67564000D01*
X187960000Y-67564000D02*
X187960000Y-70104000D01*
X187960000Y-70104000D02*
X186334404Y-71729596D01*
X186334404Y-71729596D02*
X181254404Y-71729596D01*
X181254404Y-71729596D02*
X180317115Y-72666885D01*
X195452000Y-68072000D02*
X195580000Y-67944000D01*
X192786000Y-68072000D02*
X195452000Y-68072000D01*
X190246000Y-68072000D02*
X189484000Y-68072000D01*
X189484000Y-68072000D02*
X188468000Y-69088000D01*
X188468000Y-69088000D02*
X188468000Y-70612000D01*
X188468000Y-70612000D02*
X186893202Y-72186798D01*
X186893202Y-72186798D02*
X181928714Y-72186798D01*
X181928714Y-72186798D02*
X180882871Y-73232641D01*
X195420000Y-70104000D02*
X195580000Y-69944000D01*
X192786000Y-70104000D02*
X195420000Y-70104000D01*
X182603025Y-72644000D02*
X187452000Y-72644000D01*
X181448628Y-73798397D02*
X182603025Y-72644000D01*
X187452000Y-72644000D02*
X189992000Y-70104000D01*
X189992000Y-70104000D02*
X190246000Y-70104000D01*
X195388000Y-72136000D02*
X195580000Y-71944000D01*
X192786000Y-72136000D02*
X195388000Y-72136000D01*
X190246000Y-72136000D02*
X188976000Y-72136000D01*
X183226539Y-73151998D02*
X182014384Y-74364153D01*
X187960002Y-73151998D02*
X183226539Y-73151998D01*
X188976000Y-72136000D02*
X187960002Y-73151998D01*
X195356000Y-74168000D02*
X195580000Y-73944000D01*
X192786000Y-74168000D02*
X195356000Y-74168000D01*
X190246000Y-74168000D02*
X186436000Y-74168000D01*
X183850049Y-73660000D02*
X182580140Y-74929909D01*
X185928000Y-73660000D02*
X183850049Y-73660000D01*
X186436000Y-74168000D02*
X185928000Y-73660000D01*
X185086000Y-76708000D02*
X185086000Y-78660000D01*
X185086000Y-78660000D02*
X185006000Y-78740000D01*
X185006000Y-78740000D02*
X183965561Y-78740000D01*
X183965561Y-78740000D02*
X183145896Y-77920335D01*
X170180000Y-86868000D02*
X169164000Y-85852000D01*
X169164000Y-85852000D02*
X169164000Y-82688488D01*
X169164000Y-82688488D02*
X171669129Y-80183359D01*
X170180000Y-91440000D02*
X170180000Y-86868000D01*
X195260000Y-80264000D02*
X195580000Y-79944000D01*
X173736000Y-91440000D02*
X175260000Y-92964000D01*
X175260000Y-92964000D02*
X183388000Y-92964000D01*
X183388000Y-92964000D02*
X186944000Y-89408000D01*
X186944000Y-89408000D02*
X187960000Y-89408000D01*
X187960000Y-89408000D02*
X189738000Y-87630000D01*
X189738000Y-87630000D02*
X189738000Y-85598000D01*
X189738000Y-85598000D02*
X192024000Y-83312000D01*
X192024000Y-83312000D02*
X192024000Y-81788000D01*
X192024000Y-81788000D02*
X193868000Y-79944000D01*
X193868000Y-79944000D02*
X195580000Y-79944000D01*
X172720000Y-91440000D02*
X173736000Y-91440000D01*
X168656000Y-82064975D02*
X171103372Y-79617603D01*
X168656000Y-92202000D02*
X168656000Y-82064975D01*
X169799000Y-93345000D02*
X168656000Y-92202000D01*
X170180000Y-93345000D02*
X169799000Y-93345000D01*
X195228000Y-82296000D02*
X195580000Y-81944000D01*
X174320202Y-93345000D02*
X174701202Y-93726000D01*
X174701202Y-93726000D02*
X183896000Y-93726000D01*
X183896000Y-93726000D02*
X186436000Y-91186000D01*
X186436000Y-91186000D02*
X186436000Y-90932000D01*
X186436000Y-90932000D02*
X187198000Y-90170000D01*
X187198000Y-90170000D02*
X188722000Y-90170000D01*
X188722000Y-90170000D02*
X190500000Y-88392000D01*
X190500000Y-88392000D02*
X190500000Y-85852000D01*
X190500000Y-85852000D02*
X192786000Y-83566000D01*
X192786000Y-83566000D02*
X192786000Y-83058000D01*
X192786000Y-83058000D02*
X193900000Y-81944000D01*
X193900000Y-81944000D02*
X195580000Y-81944000D01*
X172720000Y-93345000D02*
X174320202Y-93345000D01*
X170434000Y-79248000D02*
X170537616Y-79051847D01*
X168148000Y-81441463D02*
X170537616Y-79051847D01*
X168148000Y-93472000D02*
X168148000Y-81441463D01*
X169418000Y-94742000D02*
X168148000Y-93472000D01*
X173990000Y-94742000D02*
X169418000Y-94742000D01*
X174498000Y-94234000D02*
X173990000Y-94742000D01*
X184404000Y-94234000D02*
X174498000Y-94234000D01*
X186944000Y-91694000D02*
X184404000Y-94234000D01*
X187706000Y-91694000D02*
X186944000Y-91694000D01*
X195196000Y-84328000D02*
X195580000Y-83944000D01*
X190246000Y-89916000D02*
X191262000Y-88900000D01*
X191262000Y-88900000D02*
X191262000Y-86360000D01*
X191262000Y-86360000D02*
X193678000Y-83944000D01*
X193678000Y-83944000D02*
X195580000Y-83944000D01*
X190246000Y-91694000D02*
X190246000Y-89916000D01*
X186182000Y-93726000D02*
X185216798Y-94691202D01*
X185216798Y-94691202D02*
X175056798Y-94691202D01*
X175056798Y-94691202D02*
X174498000Y-95250000D01*
X174498000Y-95250000D02*
X169164000Y-95250000D01*
X169164000Y-95250000D02*
X167386000Y-93472000D01*
X167386000Y-93472000D02*
X167386000Y-81280000D01*
X167386000Y-81280000D02*
X168656000Y-80010000D01*
X168656000Y-80010000D02*
X168656000Y-79801951D01*
X168656000Y-79801951D02*
X169971860Y-78486091D01*
X187706000Y-93726000D02*
X186182000Y-93726000D01*
X195164000Y-86360000D02*
X195580000Y-85944000D01*
X193710000Y-85944000D02*
X195580000Y-85944000D01*
X192278000Y-87376000D02*
X193710000Y-85944000D01*
X192278000Y-88646000D02*
X192278000Y-87376000D01*
X191770000Y-89154000D02*
X192278000Y-88646000D01*
X191770000Y-92964000D02*
X191770000Y-89154000D01*
X191008000Y-93726000D02*
X191770000Y-92964000D01*
X190246000Y-93726000D02*
X191008000Y-93726000D01*
X172466000Y-88472000D02*
X172466000Y-87884000D01*
X172466000Y-87884000D02*
X173228000Y-87122000D01*
X173228000Y-87122000D02*
X176276000Y-87122000D01*
X176276000Y-87122000D02*
X176530000Y-86868000D01*
X176530000Y-86868000D02*
X176530000Y-85772000D01*
X179578000Y-84328000D02*
X181356000Y-84328000D01*
X181610000Y-84582000D02*
X181610000Y-85518000D01*
X181356000Y-84328000D02*
X181610000Y-84582000D01*
X178054091Y-83012140D02*
X178054091Y-83058091D01*
X178054091Y-83058091D02*
X179324000Y-84328000D01*
X179832000Y-84582000D02*
X179832000Y-85514000D01*
X179578000Y-84328000D02*
X179832000Y-84582000D01*
X179324000Y-84328000D02*
X179578000Y-84328000D01*
X177488335Y-83577896D02*
X177557896Y-83577896D01*
X177557896Y-83577896D02*
X178308000Y-84328000D01*
X178308000Y-84328000D02*
X178308000Y-85514000D01*
X171103372Y-73821372D02*
X171103372Y-73798397D01*
X171958000Y-74676000D02*
X171103372Y-73821372D01*
D11*
X186944000Y-75184000D02*
X186690000Y-75184000D01*
X187198000Y-75438000D02*
X186944000Y-75184000D01*
X189738000Y-75438000D02*
X187198000Y-75438000D01*
X190244000Y-75944000D02*
X189738000Y-75438000D01*
X195580000Y-75944000D02*
X190244000Y-75944000D01*
X182292000Y-85772000D02*
X184404000Y-87884000D01*
X176530000Y-85772000D02*
X182292000Y-85772000D01*
X176530000Y-84582000D02*
X176530000Y-85772000D01*
X177488335Y-83623665D02*
X176530000Y-84582000D01*
X177488335Y-83577896D02*
X177488335Y-83623665D01*
X178054091Y-83012140D02*
X177488335Y-83577896D01*
D29*
X162052000Y-58928000D02*
X160020000Y-60960000D01*
X160020000Y-60960000D02*
X121920000Y-60960000D01*
X166878000Y-58928000D02*
X162052000Y-58928000D01*
D11*
X171196000Y-65024000D02*
X173228000Y-65024000D01*
X168148000Y-62484000D02*
X169672000Y-64008000D01*
X171196000Y-63500000D02*
X170180000Y-62484000D01*
X175260000Y-63500000D02*
X173228000Y-63500000D01*
X177292000Y-63500000D02*
X176276000Y-62484000D01*
X177292000Y-60960000D02*
X177800000Y-62484000D01*
X173228000Y-60960000D02*
X174752000Y-60960000D01*
X177800000Y-67310000D02*
X180340000Y-67310000D01*
X182880000Y-67310000D02*
X185420000Y-67310000D01*
X185420000Y-64770000D02*
X182880000Y-64770000D01*
X180340000Y-64770000D02*
X182880000Y-62230000D01*
X185420000Y-62230000D02*
X187960000Y-59690000D01*
X190500000Y-79756000D02*
X189992000Y-80264000D01*
X189992000Y-80264000D02*
X189992000Y-81280000D01*
X189992000Y-82804000D02*
X189484000Y-83312000D01*
X189484000Y-83312000D02*
X189484000Y-84328000D01*
X183896000Y-89408000D02*
X183896000Y-90932000D01*
X182880000Y-91948000D02*
X181356000Y-91948000D01*
X179832000Y-91948000D02*
X178308000Y-91948000D01*
X176784000Y-91948000D02*
X176276000Y-91440000D01*
X176276000Y-91440000D02*
X175260000Y-91440000D01*
X177800000Y-90424000D02*
X179324000Y-90424000D01*
D28*
X178054091Y-70403860D02*
X178054091Y-70357909D01*
X183145896Y-75495665D02*
X184092335Y-75495665D01*
X184092335Y-75495665D02*
X184785000Y-74803000D01*
X178619847Y-82446384D02*
X178619847Y-82480847D01*
X178619847Y-82480847D02*
X177419000Y-81280000D01*
X178619847Y-82446384D02*
X178712384Y-82446384D01*
X179832000Y-87714000D02*
X179832000Y-88646000D01*
X178308000Y-87714000D02*
X178308000Y-88646000D01*
X176530000Y-88472000D02*
X176530000Y-89662000D01*
X174498000Y-88472000D02*
X174498000Y-89662000D01*
X187786000Y-76708000D02*
X189484000Y-76708000D01*
D11*
X171704000Y-60579000D02*
X171704000Y-60960000D01*
X170053000Y-58928000D02*
X171704000Y-60579000D01*
X169418000Y-58928000D02*
X170053000Y-58928000D01*
D28*
X178054091Y-70357909D02*
X179324000Y-69088000D01*
D11*
X195580000Y-77944000D02*
X191056000Y-77944000D01*
X191056000Y-77944000D02*
X191000000Y-78000000D01*
D28*
X181610000Y-88218000D02*
X181610000Y-89408000D01*
X174498000Y-85772000D02*
X174498000Y-84143561D01*
X174498000Y-84143561D02*
X175063665Y-83577896D01*
X173690231Y-66040000D02*
X177488335Y-69838104D01*
X169672000Y-66040000D02*
X173690231Y-66040000D01*
X165608000Y-61976000D02*
X169672000Y-66040000D01*
X160528000Y-61976000D02*
X165608000Y-61976000D01*
X159512000Y-62992000D02*
X160528000Y-61976000D01*
X159512000Y-63754000D02*
X159512000Y-62992000D01*
X171773561Y-66548000D02*
X175063665Y-69838104D01*
X169164000Y-66548000D02*
X171773561Y-66548000D01*
X167640000Y-65024000D02*
X169164000Y-66548000D01*
X160020000Y-65024000D02*
X167640000Y-65024000D01*
X159512000Y-65532000D02*
X160020000Y-65024000D01*
X159512000Y-66294000D02*
X159512000Y-65532000D01*
X172720000Y-68580000D02*
X172697025Y-68602975D01*
X172697025Y-68602975D02*
X172697024Y-68602975D01*
X172697024Y-68602975D02*
X172719999Y-68580000D01*
X172719999Y-68580000D02*
X172720000Y-68580000D01*
X172720000Y-68580000D02*
X172720000Y-68625951D01*
X171150049Y-67056000D02*
X172720000Y-68625951D01*
X172720000Y-68625951D02*
X174497909Y-70403860D01*
X164084000Y-67056000D02*
X171150049Y-67056000D01*
X163576000Y-67564000D02*
X164084000Y-67056000D01*
X161036000Y-67564000D02*
X163576000Y-67564000D01*
X159766000Y-68834000D02*
X161036000Y-67564000D01*
X159512000Y-68834000D02*
X159766000Y-68834000D01*
X171115269Y-68152731D02*
X171115269Y-68152732D01*
X171196000Y-68072000D02*
X171115269Y-68152731D01*
X170526537Y-67564000D02*
X171115269Y-68152732D01*
X171115269Y-68152732D02*
X173932153Y-70969616D01*
X166116000Y-67564000D02*
X170526537Y-67564000D01*
X163576000Y-70104000D02*
X166116000Y-67564000D01*
X161036000Y-70104000D02*
X163576000Y-70104000D01*
X159766000Y-71374000D02*
X161036000Y-70104000D01*
X159512000Y-71374000D02*
X159766000Y-71374000D01*
X169903025Y-68072000D02*
X173366397Y-71535372D01*
X166624000Y-68072000D02*
X169903025Y-68072000D01*
X164084000Y-70612000D02*
X166624000Y-68072000D01*
X164084000Y-72136000D02*
X164084000Y-70612000D01*
X163576000Y-72644000D02*
X164084000Y-72136000D01*
X161544000Y-72644000D02*
X163576000Y-72644000D01*
X160274000Y-73914000D02*
X161544000Y-72644000D01*
X159512000Y-73914000D02*
X160274000Y-73914000D01*
X169279512Y-68580000D02*
X172800641Y-72101129D01*
X167132000Y-68580000D02*
X169279512Y-68580000D01*
X164592000Y-71120000D02*
X167132000Y-68580000D01*
X164592000Y-74168000D02*
X164592000Y-71120000D01*
X163576000Y-75184000D02*
X164592000Y-74168000D01*
X161036000Y-75184000D02*
X163576000Y-75184000D01*
X159766000Y-76454000D02*
X161036000Y-75184000D01*
X159512000Y-76454000D02*
X159766000Y-76454000D01*
X169164000Y-69596000D02*
X172234885Y-72666885D01*
X167132000Y-69596000D02*
X169164000Y-69596000D01*
X165100000Y-71628000D02*
X167132000Y-69596000D01*
X165100000Y-76200000D02*
X165100000Y-71628000D01*
X163576000Y-77724000D02*
X165100000Y-76200000D01*
X161036000Y-77724000D02*
X163576000Y-77724000D01*
X159766000Y-78994000D02*
X161036000Y-77724000D01*
X159512000Y-78994000D02*
X159766000Y-78994000D01*
X169048488Y-70612000D02*
X171669129Y-73232641D01*
X167132000Y-70612000D02*
X169048488Y-70612000D01*
X165608000Y-72136000D02*
X167132000Y-70612000D01*
X165608000Y-78232000D02*
X165608000Y-72136000D01*
X163576000Y-80264000D02*
X165608000Y-78232000D01*
X161036000Y-80264000D02*
X163576000Y-80264000D01*
X159766000Y-81534000D02*
X161036000Y-80264000D01*
X159512000Y-81534000D02*
X159766000Y-81534000D01*
X180086000Y-83058000D02*
X179832000Y-82804000D01*
X179832000Y-82804000D02*
X179832000Y-82527025D01*
X179832000Y-82527025D02*
X179185603Y-81880628D01*
X181356000Y-83312000D02*
X181356000Y-82804000D01*
X181356000Y-82804000D02*
X179866871Y-81314871D01*
X179866871Y-81314871D02*
X179751359Y-81314871D01*
X182880000Y-83820000D02*
X182372000Y-83312000D01*
X182372000Y-83312000D02*
X182372000Y-82804000D01*
X182372000Y-82804000D02*
X180317115Y-80749115D01*
X182880000Y-82180488D02*
X180882871Y-80183359D01*
X182880000Y-82296000D02*
X182880000Y-82180488D01*
X183896000Y-83312000D02*
X182880000Y-82296000D01*
X183619025Y-81788000D02*
X181448628Y-79617603D01*
X183896000Y-81788000D02*
X183619025Y-81788000D01*
X184912000Y-82804000D02*
X183896000Y-81788000D01*
X185420000Y-81788000D02*
X184404000Y-80772000D01*
X184404000Y-80772000D02*
X183734537Y-80772000D01*
X183734537Y-80772000D02*
X182014384Y-79051847D01*
X184404000Y-80264000D02*
X182626091Y-78486091D01*
X185420000Y-80264000D02*
X184404000Y-80264000D01*
X186436000Y-81280000D02*
X185420000Y-80264000D01*
X182626091Y-78486091D02*
X182580140Y-78486091D01*
X172812537Y-83566000D02*
X173932153Y-82446384D01*
X172720000Y-83566000D02*
X172812537Y-83566000D01*
X172466000Y-83820000D02*
X172720000Y-83566000D01*
X172189025Y-83058000D02*
X173366397Y-81880628D01*
X171958000Y-83058000D02*
X172189025Y-83058000D01*
X171450000Y-83566000D02*
X171958000Y-83058000D01*
X171450000Y-84582000D02*
X171450000Y-83566000D01*
X172800641Y-81314871D02*
X172685129Y-81314871D01*
X172685129Y-81314871D02*
X170688000Y-83312000D01*
X170688000Y-83312000D02*
X170688000Y-83820000D01*
X172234885Y-80749115D02*
X169672000Y-83312000D01*
X169672000Y-84328000D02*
X170688000Y-85344000D01*
X169672000Y-83312000D02*
X169672000Y-84328000D01*
X165100000Y-82804000D02*
X165100000Y-79756000D01*
X165100000Y-79756000D02*
X166065202Y-78790798D01*
X166065202Y-78790798D02*
X166065202Y-74218798D01*
X166065202Y-74218798D02*
X167132000Y-73152000D01*
X167132000Y-73152000D02*
X169325463Y-73152000D01*
X169325463Y-73152000D02*
X170537616Y-74364153D01*
X163322000Y-84582000D02*
X165100000Y-82804000D01*
X162560000Y-84582000D02*
X163322000Y-84582000D01*
X168701951Y-73660000D02*
X169971860Y-74929909D01*
X167640000Y-73660000D02*
X168701951Y-73660000D01*
X166624000Y-74676000D02*
X167640000Y-73660000D01*
X166624000Y-79248000D02*
X166624000Y-74676000D01*
X165608000Y-80264000D02*
X166624000Y-79248000D01*
X165608000Y-84836000D02*
X165608000Y-80264000D01*
X163322000Y-87122000D02*
X165608000Y-84836000D01*
X162560000Y-87122000D02*
X163322000Y-87122000D01*
X167132000Y-77769769D02*
X169406104Y-75495665D01*
X167132000Y-79756000D02*
X167132000Y-77769769D01*
X166116000Y-80772000D02*
X167132000Y-79756000D01*
X166116000Y-86868000D02*
X166116000Y-80772000D01*
X163322000Y-89662000D02*
X166116000Y-86868000D01*
X162560000Y-89662000D02*
X163322000Y-89662000D01*
X163830000Y-92202000D02*
X166624000Y-89408000D01*
X166624000Y-89408000D02*
X166624000Y-81280000D01*
X166624000Y-81280000D02*
X167640000Y-80264000D01*
X167640000Y-80264000D02*
X167640000Y-79686439D01*
X167640000Y-79686439D02*
X169406104Y-77920335D01*
X162560000Y-92202000D02*
X163830000Y-92202000D01*
X172466000Y-85772000D02*
X172466000Y-85044049D01*
X172466000Y-85044049D02*
X174497909Y-83012140D01*
X172466000Y-85772000D02*
X172466000Y-85090000D01*
X174497909Y-83058091D02*
X174497909Y-83012140D01*
X176276000Y-81280000D02*
X176276000Y-80010000D01*
X165862000Y-61214000D02*
X170434000Y-61214000D01*
X170434000Y-61214000D02*
X171450000Y-62230000D01*
X171450000Y-62230000D02*
X174752000Y-62230000D01*
X174752000Y-62230000D02*
X176530000Y-60452000D01*
X176530000Y-60452000D02*
X176530000Y-58928000D01*
X174543860Y-83012140D02*
X176276000Y-81280000D01*
X174497909Y-83012140D02*
X174543860Y-83012140D01*
G36*
X175627162Y-60277207D02*
X174436369Y-61468000D01*
X171765630Y-61468000D01*
X170972815Y-60675185D01*
X170725605Y-60510004D01*
X170434000Y-60452000D01*
X168276880Y-60452000D01*
X168348927Y-60404673D01*
X168491377Y-60193640D01*
X168541440Y-59944000D01*
X168541440Y-59127000D01*
X175034235Y-59127000D01*
X175145474Y-59686234D01*
X175470330Y-60172415D01*
X175627162Y-60277207D01*
X175627162Y-60277207D01*
G37*
X175627162Y-60277207D02*
X174436369Y-61468000D01*
X171765630Y-61468000D01*
X170972815Y-60675185D01*
X170725605Y-60510004D01*
X170434000Y-60452000D01*
X168276880Y-60452000D01*
X168348927Y-60404673D01*
X168491377Y-60193640D01*
X168541440Y-59944000D01*
X168541440Y-59127000D01*
X175034235Y-59127000D01*
X175145474Y-59686234D01*
X175470330Y-60172415D01*
X175627162Y-60277207D01*
G36*
X185771477Y-74581108D02*
X185610687Y-74968332D01*
X185610313Y-75397784D01*
X185615591Y-75410560D01*
X184336000Y-75410560D01*
X184093877Y-75457537D01*
X183881073Y-75597327D01*
X183738623Y-75808360D01*
X183688560Y-76058000D01*
X183688560Y-77260013D01*
X183208574Y-76780027D01*
X183004149Y-76642038D01*
X182754828Y-76590408D01*
X182504878Y-76638905D01*
X182292956Y-76780027D01*
X182005588Y-77067395D01*
X181891547Y-77236341D01*
X181727200Y-77345783D01*
X181439832Y-77633151D01*
X181325791Y-77802097D01*
X181161444Y-77911539D01*
X180874076Y-78198907D01*
X180760035Y-78367853D01*
X180595688Y-78477295D01*
X180308320Y-78764663D01*
X180194279Y-78933608D01*
X180029931Y-79043051D01*
X179742563Y-79330419D01*
X179628522Y-79499365D01*
X179464175Y-79608807D01*
X179176807Y-79896175D01*
X179062766Y-80065121D01*
X178898419Y-80174563D01*
X178611051Y-80461931D01*
X178497008Y-80630879D01*
X178332663Y-80740320D01*
X178045295Y-81027688D01*
X177907306Y-81232113D01*
X177855676Y-81481434D01*
X177904173Y-81731384D01*
X177904765Y-81732273D01*
X177663023Y-81682213D01*
X177413073Y-81730710D01*
X177201151Y-81871832D01*
X176913783Y-82159200D01*
X176799742Y-82328146D01*
X176635395Y-82437588D01*
X176348027Y-82724956D01*
X176275511Y-82832384D01*
X176203973Y-82724956D01*
X176056323Y-82577306D01*
X176814815Y-81818815D01*
X176979996Y-81571605D01*
X176979996Y-81571604D01*
X177038000Y-81280000D01*
X177038000Y-80641114D01*
X177110555Y-80568686D01*
X177260828Y-80206788D01*
X177261170Y-79814931D01*
X177111529Y-79452771D01*
X176834686Y-79175445D01*
X176472788Y-79025172D01*
X176080931Y-79024830D01*
X175718771Y-79174471D01*
X175441445Y-79451314D01*
X175291172Y-79813212D01*
X175290830Y-80205069D01*
X175440471Y-80567229D01*
X175514000Y-80640886D01*
X175514000Y-80964370D01*
X174978693Y-81499676D01*
X174785093Y-81306076D01*
X174616146Y-81192035D01*
X174506705Y-81027688D01*
X174219337Y-80740320D01*
X174050391Y-80626279D01*
X173940949Y-80461931D01*
X173653581Y-80174563D01*
X173484634Y-80060522D01*
X173375193Y-79896175D01*
X173087825Y-79608807D01*
X172918878Y-79494766D01*
X172809437Y-79330419D01*
X172522069Y-79043051D01*
X172353120Y-78929008D01*
X172243680Y-78764663D01*
X171956312Y-78477295D01*
X171787365Y-78363254D01*
X171677924Y-78198907D01*
X171390556Y-77911539D01*
X171221609Y-77797498D01*
X171112168Y-77633151D01*
X170824800Y-77345783D01*
X170655853Y-77231742D01*
X170546412Y-77067395D01*
X170259044Y-76780027D01*
X170151615Y-76707511D01*
X170259044Y-76635973D01*
X170546412Y-76348605D01*
X170660452Y-76179658D01*
X170824800Y-76070217D01*
X171112168Y-75782849D01*
X171226208Y-75613902D01*
X171311954Y-75556803D01*
X171345714Y-75590622D01*
X171742332Y-75755313D01*
X172171784Y-75755687D01*
X172568689Y-75591689D01*
X172872622Y-75288286D01*
X173037313Y-74891668D01*
X173037687Y-74462216D01*
X172873689Y-74065311D01*
X172843519Y-74035088D01*
X172923477Y-73916634D01*
X173087825Y-73807193D01*
X173375193Y-73519825D01*
X173489233Y-73350878D01*
X173653581Y-73241437D01*
X173940949Y-72954069D01*
X174054991Y-72785120D01*
X174219337Y-72675680D01*
X174506705Y-72388312D01*
X174620745Y-72219365D01*
X174785093Y-72109924D01*
X175072461Y-71822556D01*
X175186501Y-71653609D01*
X175350849Y-71544168D01*
X175638217Y-71256800D01*
X175752257Y-71087853D01*
X175916605Y-70978412D01*
X176203973Y-70691044D01*
X176276488Y-70583615D01*
X176348027Y-70691044D01*
X176635395Y-70978412D01*
X176839820Y-71116401D01*
X177089141Y-71168031D01*
X177339091Y-71119534D01*
X177339980Y-71118941D01*
X177289920Y-71360684D01*
X177338417Y-71610634D01*
X177479539Y-71822556D01*
X177766907Y-72109924D01*
X177935853Y-72223964D01*
X178045295Y-72388312D01*
X178332663Y-72675680D01*
X178501608Y-72789720D01*
X178611051Y-72954069D01*
X178898419Y-73241437D01*
X179067365Y-73355477D01*
X179176807Y-73519825D01*
X179464175Y-73807193D01*
X179633121Y-73921233D01*
X179742563Y-74085581D01*
X180029931Y-74372949D01*
X180198879Y-74486991D01*
X180308320Y-74651337D01*
X180595688Y-74938705D01*
X180764634Y-75052745D01*
X180874076Y-75217093D01*
X181161444Y-75504461D01*
X181330390Y-75618501D01*
X181439832Y-75782849D01*
X181727200Y-76070217D01*
X181931625Y-76208206D01*
X182180946Y-76259836D01*
X182430896Y-76211339D01*
X182642818Y-76070217D01*
X183720448Y-74992587D01*
X183858437Y-74788162D01*
X183873824Y-74713854D01*
X184165679Y-74422000D01*
X185612369Y-74422000D01*
X185771477Y-74581108D01*
X185771477Y-74581108D01*
G37*
X185771477Y-74581108D02*
X185610687Y-74968332D01*
X185610313Y-75397784D01*
X185615591Y-75410560D01*
X184336000Y-75410560D01*
X184093877Y-75457537D01*
X183881073Y-75597327D01*
X183738623Y-75808360D01*
X183688560Y-76058000D01*
X183688560Y-77260013D01*
X183208574Y-76780027D01*
X183004149Y-76642038D01*
X182754828Y-76590408D01*
X182504878Y-76638905D01*
X182292956Y-76780027D01*
X182005588Y-77067395D01*
X181891547Y-77236341D01*
X181727200Y-77345783D01*
X181439832Y-77633151D01*
X181325791Y-77802097D01*
X181161444Y-77911539D01*
X180874076Y-78198907D01*
X180760035Y-78367853D01*
X180595688Y-78477295D01*
X180308320Y-78764663D01*
X180194279Y-78933608D01*
X180029931Y-79043051D01*
X179742563Y-79330419D01*
X179628522Y-79499365D01*
X179464175Y-79608807D01*
X179176807Y-79896175D01*
X179062766Y-80065121D01*
X178898419Y-80174563D01*
X178611051Y-80461931D01*
X178497008Y-80630879D01*
X178332663Y-80740320D01*
X178045295Y-81027688D01*
X177907306Y-81232113D01*
X177855676Y-81481434D01*
X177904173Y-81731384D01*
X177904765Y-81732273D01*
X177663023Y-81682213D01*
X177413073Y-81730710D01*
X177201151Y-81871832D01*
X176913783Y-82159200D01*
X176799742Y-82328146D01*
X176635395Y-82437588D01*
X176348027Y-82724956D01*
X176275511Y-82832384D01*
X176203973Y-82724956D01*
X176056323Y-82577306D01*
X176814815Y-81818815D01*
X176979996Y-81571605D01*
X176979996Y-81571604D01*
X177038000Y-81280000D01*
X177038000Y-80641114D01*
X177110555Y-80568686D01*
X177260828Y-80206788D01*
X177261170Y-79814931D01*
X177111529Y-79452771D01*
X176834686Y-79175445D01*
X176472788Y-79025172D01*
X176080931Y-79024830D01*
X175718771Y-79174471D01*
X175441445Y-79451314D01*
X175291172Y-79813212D01*
X175290830Y-80205069D01*
X175440471Y-80567229D01*
X175514000Y-80640886D01*
X175514000Y-80964370D01*
X174978693Y-81499676D01*
X174785093Y-81306076D01*
X174616146Y-81192035D01*
X174506705Y-81027688D01*
X174219337Y-80740320D01*
X174050391Y-80626279D01*
X173940949Y-80461931D01*
X173653581Y-80174563D01*
X173484634Y-80060522D01*
X173375193Y-79896175D01*
X173087825Y-79608807D01*
X172918878Y-79494766D01*
X172809437Y-79330419D01*
X172522069Y-79043051D01*
X172353120Y-78929008D01*
X172243680Y-78764663D01*
X171956312Y-78477295D01*
X171787365Y-78363254D01*
X171677924Y-78198907D01*
X171390556Y-77911539D01*
X171221609Y-77797498D01*
X171112168Y-77633151D01*
X170824800Y-77345783D01*
X170655853Y-77231742D01*
X170546412Y-77067395D01*
X170259044Y-76780027D01*
X170151615Y-76707511D01*
X170259044Y-76635973D01*
X170546412Y-76348605D01*
X170660452Y-76179658D01*
X170824800Y-76070217D01*
X171112168Y-75782849D01*
X171226208Y-75613902D01*
X171311954Y-75556803D01*
X171345714Y-75590622D01*
X171742332Y-75755313D01*
X172171784Y-75755687D01*
X172568689Y-75591689D01*
X172872622Y-75288286D01*
X173037313Y-74891668D01*
X173037687Y-74462216D01*
X172873689Y-74065311D01*
X172843519Y-74035088D01*
X172923477Y-73916634D01*
X173087825Y-73807193D01*
X173375193Y-73519825D01*
X173489233Y-73350878D01*
X173653581Y-73241437D01*
X173940949Y-72954069D01*
X174054991Y-72785120D01*
X174219337Y-72675680D01*
X174506705Y-72388312D01*
X174620745Y-72219365D01*
X174785093Y-72109924D01*
X175072461Y-71822556D01*
X175186501Y-71653609D01*
X175350849Y-71544168D01*
X175638217Y-71256800D01*
X175752257Y-71087853D01*
X175916605Y-70978412D01*
X176203973Y-70691044D01*
X176276488Y-70583615D01*
X176348027Y-70691044D01*
X176635395Y-70978412D01*
X176839820Y-71116401D01*
X177089141Y-71168031D01*
X177339091Y-71119534D01*
X177339980Y-71118941D01*
X177289920Y-71360684D01*
X177338417Y-71610634D01*
X177479539Y-71822556D01*
X177766907Y-72109924D01*
X177935853Y-72223964D01*
X178045295Y-72388312D01*
X178332663Y-72675680D01*
X178501608Y-72789720D01*
X178611051Y-72954069D01*
X178898419Y-73241437D01*
X179067365Y-73355477D01*
X179176807Y-73519825D01*
X179464175Y-73807193D01*
X179633121Y-73921233D01*
X179742563Y-74085581D01*
X180029931Y-74372949D01*
X180198879Y-74486991D01*
X180308320Y-74651337D01*
X180595688Y-74938705D01*
X180764634Y-75052745D01*
X180874076Y-75217093D01*
X181161444Y-75504461D01*
X181330390Y-75618501D01*
X181439832Y-75782849D01*
X181727200Y-76070217D01*
X181931625Y-76208206D01*
X182180946Y-76259836D01*
X182430896Y-76211339D01*
X182642818Y-76070217D01*
X183720448Y-74992587D01*
X183858437Y-74788162D01*
X183873824Y-74713854D01*
X184165679Y-74422000D01*
X185612369Y-74422000D01*
X185771477Y-74581108D01*
G36*
X189087044Y-59127000D02*
X189062371Y-59151630D01*
X188849243Y-59664900D01*
X188848942Y-60009426D01*
X185897185Y-62961185D01*
X185732004Y-63208395D01*
X185674000Y-63500000D01*
X185674000Y-68264369D01*
X184342379Y-69595990D01*
X179231473Y-69595990D01*
X178939868Y-69653994D01*
X178937640Y-69655482D01*
X178937639Y-69655483D01*
X178769091Y-69688186D01*
X178768201Y-69688778D01*
X178818262Y-69447036D01*
X178769765Y-69197086D01*
X178628643Y-68985164D01*
X178341275Y-68697796D01*
X178136850Y-68559807D01*
X177887529Y-68508177D01*
X177637579Y-68556674D01*
X177425657Y-68697795D01*
X174229046Y-65501185D01*
X173981836Y-65336004D01*
X173690231Y-65278000D01*
X169987630Y-65278000D01*
X166685630Y-61976000D01*
X170118370Y-61976000D01*
X170911185Y-62768815D01*
X171158395Y-62933996D01*
X171158396Y-62933996D01*
X171450000Y-62992000D01*
X174752000Y-62992000D01*
X174752000Y-62991999D01*
X175043604Y-62933996D01*
X175043605Y-62933996D01*
X175290815Y-62768815D01*
X177068815Y-60990815D01*
X177068816Y-60990815D01*
X177167834Y-60842623D01*
X177233996Y-60743605D01*
X177233996Y-60743604D01*
X177292000Y-60452000D01*
X177292000Y-60371311D01*
X177589670Y-60172415D01*
X177800000Y-59857634D01*
X178010330Y-60172415D01*
X178496511Y-60497271D01*
X179070000Y-60611345D01*
X179643489Y-60497271D01*
X180129670Y-60172415D01*
X180140215Y-60156632D01*
X180145937Y-60186123D01*
X180285727Y-60398927D01*
X180496760Y-60541377D01*
X180746400Y-60591440D01*
X182473600Y-60591440D01*
X182715723Y-60544463D01*
X182928527Y-60404673D01*
X183070977Y-60193640D01*
X183121040Y-59944000D01*
X183121040Y-59127000D01*
X189087044Y-59127000D01*
X189087044Y-59127000D01*
G37*
X189087044Y-59127000D02*
X189062371Y-59151630D01*
X188849243Y-59664900D01*
X188848942Y-60009426D01*
X185897185Y-62961185D01*
X185732004Y-63208395D01*
X185674000Y-63500000D01*
X185674000Y-68264369D01*
X184342379Y-69595990D01*
X179231473Y-69595990D01*
X178939868Y-69653994D01*
X178937640Y-69655482D01*
X178937639Y-69655483D01*
X178769091Y-69688186D01*
X178768201Y-69688778D01*
X178818262Y-69447036D01*
X178769765Y-69197086D01*
X178628643Y-68985164D01*
X178341275Y-68697796D01*
X178136850Y-68559807D01*
X177887529Y-68508177D01*
X177637579Y-68556674D01*
X177425657Y-68697795D01*
X174229046Y-65501185D01*
X173981836Y-65336004D01*
X173690231Y-65278000D01*
X169987630Y-65278000D01*
X166685630Y-61976000D01*
X170118370Y-61976000D01*
X170911185Y-62768815D01*
X171158395Y-62933996D01*
X171158396Y-62933996D01*
X171450000Y-62992000D01*
X174752000Y-62992000D01*
X174752000Y-62991999D01*
X175043604Y-62933996D01*
X175043605Y-62933996D01*
X175290815Y-62768815D01*
X177068815Y-60990815D01*
X177068816Y-60990815D01*
X177167834Y-60842623D01*
X177233996Y-60743605D01*
X177233996Y-60743604D01*
X177292000Y-60452000D01*
X177292000Y-60371311D01*
X177589670Y-60172415D01*
X177800000Y-59857634D01*
X178010330Y-60172415D01*
X178496511Y-60497271D01*
X179070000Y-60611345D01*
X179643489Y-60497271D01*
X180129670Y-60172415D01*
X180140215Y-60156632D01*
X180145937Y-60186123D01*
X180285727Y-60398927D01*
X180496760Y-60541377D01*
X180746400Y-60591440D01*
X182473600Y-60591440D01*
X182715723Y-60544463D01*
X182928527Y-60404673D01*
X183070977Y-60193640D01*
X183121040Y-59944000D01*
X183121040Y-59127000D01*
X189087044Y-59127000D01*
G36*
X192873000Y-79861369D02*
X191485185Y-81249185D01*
X191320004Y-81496395D01*
X191262000Y-81788000D01*
X191262000Y-82996369D01*
X189199185Y-85059185D01*
X189034004Y-85306395D01*
X188976000Y-85598000D01*
X188976000Y-87314369D01*
X187644369Y-88646000D01*
X186944000Y-88646000D01*
X186652395Y-88704004D01*
X186405184Y-88869185D01*
X183072369Y-92202000D01*
X175575630Y-92202000D01*
X174274815Y-90901185D01*
X174027605Y-90736004D01*
X173932886Y-90717163D01*
X173905010Y-90649697D01*
X173512370Y-90256371D01*
X172999100Y-90043243D01*
X172443339Y-90042758D01*
X171929697Y-90254990D01*
X171569558Y-90614500D01*
X171329874Y-90614500D01*
X170972370Y-90256371D01*
X170942000Y-90243760D01*
X170942000Y-86868000D01*
X170883996Y-86576396D01*
X170883996Y-86576395D01*
X170718815Y-86329185D01*
X170718656Y-86329026D01*
X170883069Y-86329170D01*
X171168560Y-86211207D01*
X171168560Y-86522000D01*
X171215537Y-86764123D01*
X171355327Y-86976927D01*
X171566360Y-87119377D01*
X171575530Y-87121216D01*
X171573877Y-87121537D01*
X171361073Y-87261327D01*
X171218623Y-87472360D01*
X171168560Y-87722000D01*
X171168560Y-89222000D01*
X171215537Y-89464123D01*
X171355327Y-89676927D01*
X171566360Y-89819377D01*
X171816000Y-89869440D01*
X173116000Y-89869440D01*
X173358123Y-89822463D01*
X173570927Y-89682673D01*
X173713377Y-89471640D01*
X173763440Y-89222000D01*
X173763440Y-87884000D01*
X176276000Y-87884000D01*
X176276000Y-87883999D01*
X176567604Y-87825996D01*
X176567605Y-87825996D01*
X176814815Y-87660815D01*
X177068815Y-87406816D01*
X177068815Y-87406815D01*
X177233996Y-87159605D01*
X177234128Y-87158937D01*
X177422123Y-87122463D01*
X177634927Y-86982673D01*
X177777377Y-86771640D01*
X177782460Y-86746291D01*
X177858000Y-86761440D01*
X178758000Y-86761440D01*
X179000123Y-86714463D01*
X179069457Y-86668917D01*
X179132360Y-86711377D01*
X179382000Y-86761440D01*
X180282000Y-86761440D01*
X180497198Y-86719686D01*
X180499327Y-86722927D01*
X180710360Y-86865377D01*
X180960000Y-86915440D01*
X182260000Y-86915440D01*
X182266705Y-86914139D01*
X183324422Y-87971856D01*
X183324313Y-88097784D01*
X183488311Y-88494689D01*
X183791714Y-88798622D01*
X184188332Y-88963313D01*
X184617784Y-88963687D01*
X185014689Y-88799689D01*
X185318622Y-88496286D01*
X185483313Y-88099668D01*
X185483687Y-87670216D01*
X185319689Y-87273311D01*
X185016286Y-86969378D01*
X184619668Y-86804687D01*
X184492009Y-86804575D01*
X182907440Y-85220006D01*
X182907440Y-84805023D01*
X183075069Y-84805170D01*
X183437229Y-84655529D01*
X183714555Y-84378686D01*
X183748527Y-84296871D01*
X184091069Y-84297170D01*
X184453229Y-84147529D01*
X184730555Y-83870686D01*
X184764527Y-83788871D01*
X185107069Y-83789170D01*
X185469229Y-83639529D01*
X185746555Y-83362686D01*
X185896828Y-83000788D01*
X185897128Y-82656625D01*
X185977229Y-82623529D01*
X186254555Y-82346686D01*
X186288527Y-82264871D01*
X186631069Y-82265170D01*
X186993229Y-82115529D01*
X187270555Y-81838686D01*
X187420828Y-81476788D01*
X187421170Y-81084931D01*
X187271529Y-80722771D01*
X186994686Y-80445445D01*
X186632788Y-80295172D01*
X186528711Y-80295081D01*
X186057559Y-79823929D01*
X186316441Y-79565500D01*
X186556125Y-79565500D01*
X186913630Y-79923629D01*
X187426900Y-80136757D01*
X187982661Y-80137242D01*
X188496303Y-79925010D01*
X188889629Y-79532370D01*
X189102757Y-79019100D01*
X189103242Y-78463339D01*
X188891010Y-77949697D01*
X188498370Y-77556371D01*
X187985100Y-77343243D01*
X187429339Y-77342758D01*
X186915697Y-77554990D01*
X186555558Y-77914500D01*
X186315874Y-77914500D01*
X186248219Y-77846727D01*
X186290927Y-77818673D01*
X186433377Y-77607640D01*
X186483440Y-77358000D01*
X186483440Y-76263320D01*
X186903784Y-76263687D01*
X186999698Y-76224055D01*
X187198000Y-76263500D01*
X189396066Y-76263500D01*
X189660283Y-76527717D01*
X189928094Y-76706663D01*
X189928095Y-76706663D01*
X190244000Y-76769500D01*
X192873000Y-76769500D01*
X192873000Y-79861369D01*
X192873000Y-79861369D01*
G37*
X192873000Y-79861369D02*
X191485185Y-81249185D01*
X191320004Y-81496395D01*
X191262000Y-81788000D01*
X191262000Y-82996369D01*
X189199185Y-85059185D01*
X189034004Y-85306395D01*
X188976000Y-85598000D01*
X188976000Y-87314369D01*
X187644369Y-88646000D01*
X186944000Y-88646000D01*
X186652395Y-88704004D01*
X186405184Y-88869185D01*
X183072369Y-92202000D01*
X175575630Y-92202000D01*
X174274815Y-90901185D01*
X174027605Y-90736004D01*
X173932886Y-90717163D01*
X173905010Y-90649697D01*
X173512370Y-90256371D01*
X172999100Y-90043243D01*
X172443339Y-90042758D01*
X171929697Y-90254990D01*
X171569558Y-90614500D01*
X171329874Y-90614500D01*
X170972370Y-90256371D01*
X170942000Y-90243760D01*
X170942000Y-86868000D01*
X170883996Y-86576396D01*
X170883996Y-86576395D01*
X170718815Y-86329185D01*
X170718656Y-86329026D01*
X170883069Y-86329170D01*
X171168560Y-86211207D01*
X171168560Y-86522000D01*
X171215537Y-86764123D01*
X171355327Y-86976927D01*
X171566360Y-87119377D01*
X171575530Y-87121216D01*
X171573877Y-87121537D01*
X171361073Y-87261327D01*
X171218623Y-87472360D01*
X171168560Y-87722000D01*
X171168560Y-89222000D01*
X171215537Y-89464123D01*
X171355327Y-89676927D01*
X171566360Y-89819377D01*
X171816000Y-89869440D01*
X173116000Y-89869440D01*
X173358123Y-89822463D01*
X173570927Y-89682673D01*
X173713377Y-89471640D01*
X173763440Y-89222000D01*
X173763440Y-87884000D01*
X176276000Y-87884000D01*
X176276000Y-87883999D01*
X176567604Y-87825996D01*
X176567605Y-87825996D01*
X176814815Y-87660815D01*
X177068815Y-87406816D01*
X177068815Y-87406815D01*
X177233996Y-87159605D01*
X177234128Y-87158937D01*
X177422123Y-87122463D01*
X177634927Y-86982673D01*
X177777377Y-86771640D01*
X177782460Y-86746291D01*
X177858000Y-86761440D01*
X178758000Y-86761440D01*
X179000123Y-86714463D01*
X179069457Y-86668917D01*
X179132360Y-86711377D01*
X179382000Y-86761440D01*
X180282000Y-86761440D01*
X180497198Y-86719686D01*
X180499327Y-86722927D01*
X180710360Y-86865377D01*
X180960000Y-86915440D01*
X182260000Y-86915440D01*
X182266705Y-86914139D01*
X183324422Y-87971856D01*
X183324313Y-88097784D01*
X183488311Y-88494689D01*
X183791714Y-88798622D01*
X184188332Y-88963313D01*
X184617784Y-88963687D01*
X185014689Y-88799689D01*
X185318622Y-88496286D01*
X185483313Y-88099668D01*
X185483687Y-87670216D01*
X185319689Y-87273311D01*
X185016286Y-86969378D01*
X184619668Y-86804687D01*
X184492009Y-86804575D01*
X182907440Y-85220006D01*
X182907440Y-84805023D01*
X183075069Y-84805170D01*
X183437229Y-84655529D01*
X183714555Y-84378686D01*
X183748527Y-84296871D01*
X184091069Y-84297170D01*
X184453229Y-84147529D01*
X184730555Y-83870686D01*
X184764527Y-83788871D01*
X185107069Y-83789170D01*
X185469229Y-83639529D01*
X185746555Y-83362686D01*
X185896828Y-83000788D01*
X185897128Y-82656625D01*
X185977229Y-82623529D01*
X186254555Y-82346686D01*
X186288527Y-82264871D01*
X186631069Y-82265170D01*
X186993229Y-82115529D01*
X187270555Y-81838686D01*
X187420828Y-81476788D01*
X187421170Y-81084931D01*
X187271529Y-80722771D01*
X186994686Y-80445445D01*
X186632788Y-80295172D01*
X186528711Y-80295081D01*
X186057559Y-79823929D01*
X186316441Y-79565500D01*
X186556125Y-79565500D01*
X186913630Y-79923629D01*
X187426900Y-80136757D01*
X187982661Y-80137242D01*
X188496303Y-79925010D01*
X188889629Y-79532370D01*
X189102757Y-79019100D01*
X189103242Y-78463339D01*
X188891010Y-77949697D01*
X188498370Y-77556371D01*
X187985100Y-77343243D01*
X187429339Y-77342758D01*
X186915697Y-77554990D01*
X186555558Y-77914500D01*
X186315874Y-77914500D01*
X186248219Y-77846727D01*
X186290927Y-77818673D01*
X186433377Y-77607640D01*
X186483440Y-77358000D01*
X186483440Y-76263320D01*
X186903784Y-76263687D01*
X186999698Y-76224055D01*
X187198000Y-76263500D01*
X189396066Y-76263500D01*
X189660283Y-76527717D01*
X189928094Y-76706663D01*
X189928095Y-76706663D01*
X190244000Y-76769500D01*
X192873000Y-76769500D01*
X192873000Y-79861369D01*
M02*
