G04 #@! TF.FileFunction,Legend,Top*
%FSLAX46Y46*%
G04 Gerber Fmt 4.6, Leading zero omitted, Abs format (unit mm)*
G04 Created by KiCad (PCBNEW (2014-12-04 BZR 5312)-product) date 8/01/2015 8:05:32 PM*
%MOMM*%
G01*
G04 APERTURE LIST*
%ADD10C,0.100000*%
%ADD11C,0.300000*%
%ADD12C,0.200000*%
%ADD13C,0.150000*%
G04 APERTURE END LIST*
D10*
D11*
X164827144Y-96182571D02*
X164827144Y-94682571D01*
X165184287Y-94682571D01*
X165398572Y-94754000D01*
X165541430Y-94896857D01*
X165612858Y-95039714D01*
X165684287Y-95325429D01*
X165684287Y-95539714D01*
X165612858Y-95825429D01*
X165541430Y-95968286D01*
X165398572Y-96111143D01*
X165184287Y-96182571D01*
X164827144Y-96182571D01*
X167470001Y-96182571D02*
X167470001Y-94682571D01*
X167470001Y-95396857D02*
X168327144Y-95396857D01*
X168327144Y-96182571D02*
X168327144Y-94682571D01*
X169684287Y-96182571D02*
X169684287Y-95396857D01*
X169612858Y-95254000D01*
X169470001Y-95182571D01*
X169184287Y-95182571D01*
X169041430Y-95254000D01*
X169684287Y-96111143D02*
X169541430Y-96182571D01*
X169184287Y-96182571D01*
X169041430Y-96111143D01*
X168970001Y-95968286D01*
X168970001Y-95825429D01*
X169041430Y-95682571D01*
X169184287Y-95611143D01*
X169541430Y-95611143D01*
X169684287Y-95539714D01*
X170398573Y-96182571D02*
X170398573Y-95182571D01*
X170398573Y-95468286D02*
X170470001Y-95325429D01*
X170541430Y-95254000D01*
X170684287Y-95182571D01*
X170827144Y-95182571D01*
X171184287Y-95182571D02*
X171541430Y-96182571D01*
X171898572Y-95182571D01*
X172470001Y-96182571D02*
X172470001Y-95182571D01*
X172470001Y-94682571D02*
X172398572Y-94754000D01*
X172470001Y-94825429D01*
X172541429Y-94754000D01*
X172470001Y-94682571D01*
X172470001Y-94825429D01*
X173755715Y-96111143D02*
X173612858Y-96182571D01*
X173327144Y-96182571D01*
X173184287Y-96111143D01*
X173112858Y-95968286D01*
X173112858Y-95396857D01*
X173184287Y-95254000D01*
X173327144Y-95182571D01*
X173612858Y-95182571D01*
X173755715Y-95254000D01*
X173827144Y-95396857D01*
X173827144Y-95539714D01*
X173112858Y-95682571D01*
X175541429Y-94825429D02*
X175612858Y-94754000D01*
X175755715Y-94682571D01*
X176112858Y-94682571D01*
X176255715Y-94754000D01*
X176327144Y-94825429D01*
X176398572Y-94968286D01*
X176398572Y-95111143D01*
X176327144Y-95325429D01*
X175470001Y-96182571D01*
X176398572Y-96182571D01*
X177327143Y-94682571D02*
X177470000Y-94682571D01*
X177612857Y-94754000D01*
X177684286Y-94825429D01*
X177755715Y-94968286D01*
X177827143Y-95254000D01*
X177827143Y-95611143D01*
X177755715Y-95896857D01*
X177684286Y-96039714D01*
X177612857Y-96111143D01*
X177470000Y-96182571D01*
X177327143Y-96182571D01*
X177184286Y-96111143D01*
X177112857Y-96039714D01*
X177041429Y-95896857D01*
X176970000Y-95611143D01*
X176970000Y-95254000D01*
X177041429Y-94968286D01*
X177112857Y-94825429D01*
X177184286Y-94754000D01*
X177327143Y-94682571D01*
X179255714Y-96182571D02*
X178398571Y-96182571D01*
X178827143Y-96182571D02*
X178827143Y-94682571D01*
X178684286Y-94896857D01*
X178541428Y-95039714D01*
X178398571Y-95111143D01*
X180612857Y-94682571D02*
X179898571Y-94682571D01*
X179827142Y-95396857D01*
X179898571Y-95325429D01*
X180041428Y-95254000D01*
X180398571Y-95254000D01*
X180541428Y-95325429D01*
X180612857Y-95396857D01*
X180684285Y-95539714D01*
X180684285Y-95896857D01*
X180612857Y-96039714D01*
X180541428Y-96111143D01*
X180398571Y-96182571D01*
X180041428Y-96182571D01*
X179898571Y-96111143D01*
X179827142Y-96039714D01*
D12*
X120396000Y-96012000D02*
X120396000Y-93980000D01*
X137160000Y-96012000D02*
X120396000Y-96012000D01*
X142240000Y-96012000D02*
X142240000Y-95758000D01*
X156718000Y-96012000D02*
X142240000Y-96012000D01*
X156718000Y-93980000D02*
X156718000Y-96012000D01*
D11*
X138557143Y-95262000D02*
X138414286Y-95190571D01*
X138200000Y-95190571D01*
X137985715Y-95262000D01*
X137842857Y-95404857D01*
X137771429Y-95547714D01*
X137700000Y-95833429D01*
X137700000Y-96047714D01*
X137771429Y-96333429D01*
X137842857Y-96476286D01*
X137985715Y-96619143D01*
X138200000Y-96690571D01*
X138342857Y-96690571D01*
X138557143Y-96619143D01*
X138628572Y-96547714D01*
X138628572Y-96047714D01*
X138342857Y-96047714D01*
X139271429Y-96690571D02*
X139271429Y-95190571D01*
X140128572Y-96690571D01*
X140128572Y-95190571D01*
X140842858Y-96690571D02*
X140842858Y-95190571D01*
X141200001Y-95190571D01*
X141414286Y-95262000D01*
X141557144Y-95404857D01*
X141628572Y-95547714D01*
X141700001Y-95833429D01*
X141700001Y-96047714D01*
X141628572Y-96333429D01*
X141557144Y-96476286D01*
X141414286Y-96619143D01*
X141200001Y-96690571D01*
X140842858Y-96690571D01*
D12*
X120396000Y-58928000D02*
X120396000Y-60960000D01*
X136398000Y-58928000D02*
X120396000Y-58928000D01*
X156464000Y-58928000D02*
X141224000Y-58928000D01*
X156464000Y-60960000D02*
X156464000Y-58928000D01*
D11*
X136898286Y-57852571D02*
X137398286Y-59352571D01*
X137898286Y-57852571D01*
X139041143Y-59281143D02*
X138898286Y-59352571D01*
X138612572Y-59352571D01*
X138469714Y-59281143D01*
X138398286Y-59209714D01*
X138326857Y-59066857D01*
X138326857Y-58638286D01*
X138398286Y-58495429D01*
X138469714Y-58424000D01*
X138612572Y-58352571D01*
X138898286Y-58352571D01*
X139041143Y-58424000D01*
X140326857Y-59281143D02*
X140184000Y-59352571D01*
X139898286Y-59352571D01*
X139755428Y-59281143D01*
X139684000Y-59209714D01*
X139612571Y-59066857D01*
X139612571Y-58638286D01*
X139684000Y-58495429D01*
X139755428Y-58424000D01*
X139898286Y-58352571D01*
X140184000Y-58352571D01*
X140326857Y-58424000D01*
D13*
X168148000Y-57658000D02*
X168148000Y-60198000D01*
X165608000Y-57658000D02*
X165608000Y-60198000D01*
X165608000Y-60198000D02*
X168148000Y-60198000D01*
X168148000Y-60198000D02*
X170688000Y-60198000D01*
X170688000Y-60198000D02*
X170688000Y-57658000D01*
X170688000Y-57658000D02*
X165608000Y-57658000D01*
X160782000Y-65024000D02*
X160782000Y-82804000D01*
X160782000Y-82804000D02*
X158242000Y-82804000D01*
X158242000Y-82804000D02*
X158242000Y-65024000D01*
X160782000Y-62484000D02*
X160782000Y-65024000D01*
X160782000Y-65024000D02*
X158242000Y-65024000D01*
X160782000Y-62484000D02*
X158242000Y-62484000D01*
X158242000Y-62484000D02*
X158242000Y-65024000D01*
X163830000Y-65024000D02*
X163830000Y-82804000D01*
X163830000Y-82804000D02*
X161290000Y-82804000D01*
X161290000Y-82804000D02*
X161290000Y-65024000D01*
X163830000Y-62484000D02*
X163830000Y-65024000D01*
X163830000Y-65024000D02*
X161290000Y-65024000D01*
X163830000Y-62484000D02*
X161290000Y-62484000D01*
X161290000Y-62484000D02*
X161290000Y-65024000D01*
X176276000Y-83784442D02*
X169199558Y-76708000D01*
X169199558Y-76708000D02*
X176276000Y-69631558D01*
X183011192Y-76366750D02*
X176276000Y-69631558D01*
X183011192Y-77049250D02*
X176276000Y-83784442D01*
X183011192Y-76366750D02*
X183011192Y-77049250D01*
X182299154Y-76708000D02*
G75*
G03X182299154Y-76708000I-635000J0D01*
G01*
X186436000Y-77724000D02*
X186436000Y-79756000D01*
X171450000Y-90424000D02*
X171450000Y-92456000D01*
X171450000Y-92329000D02*
X171450000Y-94361000D01*
X188976000Y-90678000D02*
X188976000Y-92710000D01*
X188976000Y-92710000D02*
X188976000Y-94742000D01*
X177633000Y-87114000D02*
X177633000Y-86114000D01*
X178983000Y-86114000D02*
X178983000Y-87114000D01*
X175655000Y-87722000D02*
X175655000Y-86522000D01*
X177405000Y-86522000D02*
X177405000Y-87722000D01*
X179157000Y-87114000D02*
X179157000Y-86114000D01*
X180507000Y-86114000D02*
X180507000Y-87114000D01*
X180735000Y-87468000D02*
X180735000Y-86268000D01*
X182485000Y-86268000D02*
X182485000Y-87468000D01*
X187036000Y-77583000D02*
X185836000Y-77583000D01*
X185836000Y-75833000D02*
X187036000Y-75833000D01*
X175373000Y-86522000D02*
X175373000Y-87722000D01*
X173623000Y-87722000D02*
X173623000Y-86522000D01*
X158242000Y-85852000D02*
X158242000Y-93472000D01*
X160782000Y-85852000D02*
X160782000Y-93472000D01*
X160782000Y-83312000D02*
X160782000Y-85852000D01*
X158242000Y-93472000D02*
X160782000Y-93472000D01*
X160782000Y-85852000D02*
X158242000Y-85852000D01*
X160782000Y-83312000D02*
X158242000Y-83312000D01*
X158242000Y-83312000D02*
X158242000Y-85852000D01*
X161290000Y-85852000D02*
X161290000Y-93472000D01*
X163830000Y-85852000D02*
X163830000Y-93472000D01*
X163830000Y-83312000D02*
X163830000Y-85852000D01*
X161290000Y-93472000D02*
X163830000Y-93472000D01*
X163830000Y-85852000D02*
X161290000Y-85852000D01*
X163830000Y-83312000D02*
X161290000Y-83312000D01*
X161290000Y-83312000D02*
X161290000Y-85852000D01*
X180340000Y-57658000D02*
X172720000Y-57658000D01*
X180340000Y-60198000D02*
X172720000Y-60198000D01*
X182880000Y-60198000D02*
X180340000Y-60198000D01*
X172720000Y-57658000D02*
X172720000Y-60198000D01*
X180340000Y-60198000D02*
X180340000Y-57658000D01*
X182880000Y-60198000D02*
X182880000Y-57658000D01*
X182880000Y-57658000D02*
X180340000Y-57658000D01*
X173341000Y-86522000D02*
X173341000Y-87722000D01*
X171591000Y-87722000D02*
X171591000Y-86522000D01*
M02*
