G04 #@! TF.FileFunction,Legend,Bot*
%FSLAX46Y46*%
G04 Gerber Fmt 4.6, Leading zero omitted, Abs format (unit mm)*
G04 Created by KiCad (PCBNEW (2014-12-04 BZR 5312)-product) date 8/01/2015 8:05:32 PM*
%MOMM*%
G01*
G04 APERTURE LIST*
%ADD10C,0.100000*%
%ADD11C,0.300000*%
%ADD12C,0.150000*%
G04 APERTURE END LIST*
D10*
D11*
X166310571Y-60484000D02*
X167810571Y-60984000D01*
X166310571Y-61484000D01*
X167667714Y-62841143D02*
X167739143Y-62769714D01*
X167810571Y-62555428D01*
X167810571Y-62412571D01*
X167739143Y-62198286D01*
X167596286Y-62055428D01*
X167453429Y-61984000D01*
X167167714Y-61912571D01*
X166953429Y-61912571D01*
X166667714Y-61984000D01*
X166524857Y-62055428D01*
X166382000Y-62198286D01*
X166310571Y-62412571D01*
X166310571Y-62555428D01*
X166382000Y-62769714D01*
X166453429Y-62841143D01*
X167667714Y-64341143D02*
X167739143Y-64269714D01*
X167810571Y-64055428D01*
X167810571Y-63912571D01*
X167739143Y-63698286D01*
X167596286Y-63555428D01*
X167453429Y-63484000D01*
X167167714Y-63412571D01*
X166953429Y-63412571D01*
X166667714Y-63484000D01*
X166524857Y-63555428D01*
X166382000Y-63698286D01*
X166310571Y-63912571D01*
X166310571Y-64055428D01*
X166382000Y-64269714D01*
X166453429Y-64341143D01*
X168922000Y-61341143D02*
X168850571Y-61198286D01*
X168850571Y-60984000D01*
X168922000Y-60769715D01*
X169064857Y-60626857D01*
X169207714Y-60555429D01*
X169493429Y-60484000D01*
X169707714Y-60484000D01*
X169993429Y-60555429D01*
X170136286Y-60626857D01*
X170279143Y-60769715D01*
X170350571Y-60984000D01*
X170350571Y-61126857D01*
X170279143Y-61341143D01*
X170207714Y-61412572D01*
X169707714Y-61412572D01*
X169707714Y-61126857D01*
X170350571Y-62055429D02*
X168850571Y-62055429D01*
X170350571Y-62912572D01*
X168850571Y-62912572D01*
X170350571Y-63626858D02*
X168850571Y-63626858D01*
X168850571Y-63984001D01*
X168922000Y-64198286D01*
X169064857Y-64341144D01*
X169207714Y-64412572D01*
X169493429Y-64484001D01*
X169707714Y-64484001D01*
X169993429Y-64412572D01*
X170136286Y-64341144D01*
X170279143Y-64198286D01*
X170350571Y-63984001D01*
X170350571Y-63626858D01*
D12*
X191516000Y-58928000D02*
X191516000Y-60960000D01*
X191516000Y-60960000D02*
X191516000Y-62992000D01*
X191516000Y-62992000D02*
X191516000Y-65024000D01*
X191516000Y-65024000D02*
X191516000Y-67056000D01*
X191516000Y-67056000D02*
X191516000Y-69088000D01*
X191516000Y-69088000D02*
X191516000Y-71120000D01*
X191516000Y-71120000D02*
X191516000Y-73152000D01*
X191516000Y-73152000D02*
X191516000Y-75184000D01*
X174566850Y-76076256D02*
X173859744Y-75369150D01*
X172905150Y-76323744D02*
X173612256Y-77030850D01*
M02*
