G04 #@! TF.FileFunction,Profile,NP*
%FSLAX46Y46*%
G04 Gerber Fmt 4.6, Leading zero omitted, Abs format (unit mm)*
G04 Created by KiCad (PCBNEW (2014-12-04 BZR 5312)-product) date 8/01/2015 8:05:32 PM*
%MOMM*%
G01*
G04 APERTURE LIST*
%ADD10C,0.100000*%
G04 APERTURE END LIST*
D10*
X110000000Y-97000000D02*
X110000000Y-57000000D01*
X193900000Y-57000000D02*
X193900000Y-58400000D01*
X188700000Y-57000000D02*
X188700000Y-58400000D01*
X183400000Y-57000000D02*
X183400000Y-58400000D01*
X193900000Y-57000000D02*
X188700000Y-57000000D01*
X183400000Y-57000000D02*
X110000000Y-57000000D01*
X183400000Y-58400000D02*
X188700000Y-58400000D01*
X193900000Y-58400000D02*
X197000000Y-58400000D01*
X193900000Y-97000000D02*
X188700000Y-97000000D01*
X183400000Y-97000000D02*
X110000000Y-97000000D01*
X197000000Y-87500000D02*
X195000000Y-87500000D01*
X195000000Y-87500000D02*
X193900000Y-87500000D01*
X188700000Y-95600000D02*
X183400000Y-95600000D01*
X183400000Y-97000000D02*
X183400000Y-95600000D01*
X188700000Y-97000000D02*
X188700000Y-95600000D01*
X193900000Y-97000000D02*
X193900000Y-87500000D01*
X197000000Y-87500000D02*
X197000000Y-58400000D01*
X197000000Y-87500000D02*
X197000000Y-58400000D01*
X193900000Y-97000000D02*
X193900000Y-87500000D01*
X188700000Y-97000000D02*
X188700000Y-95600000D01*
X183400000Y-97000000D02*
X183400000Y-95600000D01*
X188700000Y-95600000D02*
X183400000Y-95600000D01*
X195000000Y-87500000D02*
X193900000Y-87500000D01*
X197000000Y-87500000D02*
X195000000Y-87500000D01*
X183400000Y-97000000D02*
X110000000Y-97000000D01*
X193900000Y-97000000D02*
X188700000Y-97000000D01*
X193900000Y-58400000D02*
X197000000Y-58400000D01*
X183400000Y-58400000D02*
X188700000Y-58400000D01*
X183400000Y-57000000D02*
X110000000Y-57000000D01*
X193900000Y-57000000D02*
X188700000Y-57000000D01*
X183400000Y-57000000D02*
X183400000Y-58400000D01*
X188700000Y-57000000D02*
X188700000Y-58400000D01*
X193900000Y-57000000D02*
X193900000Y-58400000D01*
X110000000Y-97000000D02*
X110000000Y-57000000D01*
X110000000Y-97000000D02*
X110000000Y-57000000D01*
X193900000Y-57000000D02*
X193900000Y-58400000D01*
X188700000Y-57000000D02*
X188700000Y-58400000D01*
X183400000Y-57000000D02*
X183400000Y-58400000D01*
X193900000Y-57000000D02*
X188700000Y-57000000D01*
X183400000Y-57000000D02*
X110000000Y-57000000D01*
X183400000Y-58400000D02*
X188700000Y-58400000D01*
X193900000Y-58400000D02*
X197000000Y-58400000D01*
X193900000Y-97000000D02*
X188700000Y-97000000D01*
X183400000Y-97000000D02*
X110000000Y-97000000D01*
X197000000Y-87500000D02*
X195000000Y-87500000D01*
X195000000Y-87500000D02*
X193900000Y-87500000D01*
X188700000Y-95600000D02*
X183400000Y-95600000D01*
X183400000Y-97000000D02*
X183400000Y-95600000D01*
X188700000Y-97000000D02*
X188700000Y-95600000D01*
X193900000Y-97000000D02*
X193900000Y-87500000D01*
X197000000Y-87500000D02*
X197000000Y-58400000D01*
X197000000Y-87500000D02*
X197000000Y-58400000D01*
X193900000Y-97000000D02*
X193900000Y-87500000D01*
X188700000Y-97000000D02*
X188700000Y-95600000D01*
X183400000Y-97000000D02*
X183400000Y-95600000D01*
X188700000Y-95600000D02*
X183400000Y-95600000D01*
X195000000Y-87500000D02*
X193900000Y-87500000D01*
X197000000Y-87500000D02*
X195000000Y-87500000D01*
X183400000Y-97000000D02*
X110000000Y-97000000D01*
X193900000Y-97000000D02*
X188700000Y-97000000D01*
X193900000Y-58400000D02*
X197000000Y-58400000D01*
X183400000Y-58400000D02*
X188700000Y-58400000D01*
X183400000Y-57000000D02*
X110000000Y-57000000D01*
X193900000Y-57000000D02*
X188700000Y-57000000D01*
X183400000Y-57000000D02*
X183400000Y-58400000D01*
X188700000Y-57000000D02*
X188700000Y-58400000D01*
X193900000Y-57000000D02*
X193900000Y-58400000D01*
X110000000Y-97000000D02*
X110000000Y-57000000D01*
M02*
