M48
;DRILL file {kicad (2014-12-04 BZR 5312)-product} date 8/01/2015 8:01:32 PM
;FORMAT={-:-/ absolute / inch / decimal}
FMAT,2
INCH,TZ
T1C0.016
T2C0.025
T3C0.031
T4C0.032
T5C0.032
T6C0.040
%
G90
G05
M72
T1
X6.53Y-2.41
X6.62Y-2.46
X6.68Y-2.52
X6.7Y-2.46
X6.72Y-3.3
X6.72Y-3.36
X6.74Y-2.5
X6.74Y-2.56
X6.74Y-2.68
X6.75Y-3.33
X6.76Y-2.4
X6.79Y-3.3
X6.8Y-2.7
X6.82Y-2.4
X6.82Y-2.5
X6.82Y-2.56
X6.88Y-2.4
X6.9Y-2.5
X6.9Y-3.6
X6.94Y-2.46
X6.94Y-3.15
X6.96Y-3.62
X6.98Y-2.4
X6.98Y-2.5
X7.Y-2.46
X7.Y-2.65
X7.Y-3.56
X7.02Y-3.62
X7.06Y-3.56
X7.08Y-3.62
X7.09Y-3.27
X7.1Y-2.55
X7.1Y-2.65
X7.12Y-3.56
X7.14Y-3.28
X7.14Y-3.62
X7.2Y-2.45
X7.2Y-2.55
X7.2Y-2.65
X7.2Y-3.3
X7.2Y-3.62
X7.24Y-3.28
X7.24Y-3.52
X7.24Y-3.58
X7.28Y-3.26
X7.3Y-2.35
X7.3Y-2.45
X7.3Y-2.55
X7.3Y-2.65
X7.3Y-3.22
X7.34Y-3.2
X7.4Y-2.35
X7.46Y-3.32
X7.48Y-3.2
X7.48Y-3.26
X7.5Y-3.14
T2
X6.77Y-2.94
X6.87Y-3.53
X6.95Y-3.53
X7.02Y-3.49
X7.06Y-2.72
X7.08Y-3.49
X7.15Y-3.52
X7.26Y-3.46
X7.275Y-2.945
X7.35Y-2.96
X7.46Y-3.02
X7.5197Y-3.0709
T3
X4.8Y-2.4
X4.8Y-2.5
X4.8Y-2.6
X4.8Y-2.7
X4.8Y-2.8
X4.8Y-2.9
X4.8Y-3.
X4.8Y-3.1
X4.8Y-3.2
X4.8Y-3.3
X4.8Y-3.4
X4.8Y-3.5
X4.8Y-3.6
X4.8Y-3.7
X4.9Y-2.4
X4.9Y-2.5
X4.9Y-2.6
X4.9Y-2.7
X4.9Y-2.8
X4.9Y-2.9
X4.9Y-3.
X4.9Y-3.1
X4.9Y-3.2
X4.9Y-3.3
X4.9Y-3.4
X4.9Y-3.5
X4.9Y-3.6
X4.9Y-3.7
X5.Y-2.4
X5.Y-2.5
X5.Y-2.6
X5.Y-2.7
X5.Y-2.8
X5.Y-2.9
X5.Y-3.
X5.Y-3.1
X5.Y-3.2
X5.Y-3.3
X5.Y-3.4
X5.Y-3.5
X5.Y-3.6
X5.Y-3.7
X5.1Y-2.4
X5.1Y-2.5
X5.1Y-2.6
X5.1Y-2.7
X5.1Y-2.8
X5.1Y-2.9
X5.1Y-3.
X5.1Y-3.1
X5.1Y-3.2
X5.1Y-3.3
X5.1Y-3.4
X5.1Y-3.5
X5.1Y-3.6
X5.1Y-3.7
X5.2Y-2.4
X5.2Y-2.5
X5.2Y-2.6
X5.2Y-2.7
X5.2Y-2.8
X5.2Y-2.9
X5.2Y-3.
X5.2Y-3.1
X5.2Y-3.2
X5.2Y-3.3
X5.2Y-3.4
X5.2Y-3.5
X5.2Y-3.6
X5.2Y-3.7
X5.3Y-2.4
X5.3Y-2.5
X5.3Y-2.6
X5.3Y-2.7
X5.3Y-2.8
X5.3Y-2.9
X5.3Y-3.
X5.3Y-3.1
X5.3Y-3.2
X5.3Y-3.3
X5.3Y-3.4
X5.3Y-3.5
X5.3Y-3.6
X5.3Y-3.7
X5.4Y-2.4
X5.4Y-2.5
X5.4Y-2.6
X5.4Y-2.7
X5.4Y-2.8
X5.4Y-2.9
X5.4Y-3.
X5.4Y-3.1
X5.4Y-3.2
X5.4Y-3.3
X5.4Y-3.4
X5.4Y-3.5
X5.4Y-3.6
X5.4Y-3.7
X5.5Y-2.4
X5.5Y-2.5
X5.5Y-2.6
X5.5Y-2.7
X5.5Y-2.8
X5.5Y-2.9
X5.5Y-3.
X5.5Y-3.1
X5.5Y-3.2
X5.5Y-3.3
X5.5Y-3.4
X5.5Y-3.5
X5.5Y-3.6
X5.5Y-3.7
X5.6Y-2.4
X5.6Y-2.5
X5.6Y-2.6
X5.6Y-2.7
X5.6Y-2.8
X5.6Y-2.9
X5.6Y-3.
X5.6Y-3.1
X5.6Y-3.2
X5.6Y-3.3
X5.6Y-3.4
X5.6Y-3.5
X5.6Y-3.6
X5.6Y-3.7
X5.7Y-2.4
X5.7Y-2.5
X5.7Y-2.6
X5.7Y-2.7
X5.7Y-2.8
X5.7Y-2.9
X5.7Y-3.
X5.7Y-3.1
X5.7Y-3.2
X5.7Y-3.3
X5.7Y-3.4
X5.7Y-3.5
X5.7Y-3.6
X5.7Y-3.7
X5.8Y-2.4
X5.8Y-2.5
X5.8Y-2.6
X5.8Y-2.7
X5.8Y-2.8
X5.8Y-2.9
X5.8Y-3.
X5.8Y-3.1
X5.8Y-3.2
X5.8Y-3.3
X5.8Y-3.4
X5.8Y-3.5
X5.8Y-3.6
X5.8Y-3.7
X5.9Y-2.4
X5.9Y-2.5
X5.9Y-2.6
X5.9Y-2.7
X5.9Y-2.8
X5.9Y-2.9
X5.9Y-3.
X5.9Y-3.1
X5.9Y-3.2
X5.9Y-3.3
X5.9Y-3.4
X5.9Y-3.5
X5.9Y-3.6
X5.9Y-3.7
X6.Y-2.4
X6.Y-2.5
X6.Y-2.6
X6.Y-2.7
X6.Y-2.8
X6.Y-2.9
X6.Y-3.
X6.Y-3.1
X6.Y-3.2
X6.Y-3.3
X6.Y-3.4
X6.Y-3.5
X6.Y-3.6
X6.Y-3.7
X6.1Y-2.4
X6.1Y-2.5
X6.1Y-2.6
X6.1Y-2.7
X6.1Y-2.8
X6.1Y-2.9
X6.1Y-3.
X6.1Y-3.1
X6.1Y-3.2
X6.1Y-3.3
X6.1Y-3.4
X6.1Y-3.5
X6.1Y-3.6
X6.1Y-3.7
T4
X4.64Y-2.38
X4.64Y-2.48
X4.64Y-2.68
X4.64Y-2.78
X4.64Y-2.98
X4.64Y-3.08
X4.64Y-3.28
X4.64Y-3.38
X4.64Y-3.58
X4.64Y-3.68
T5
X6.7Y-3.6
X6.7Y-3.675
X6.8Y-3.6
X6.8Y-3.675
X7.29Y-3.1
X7.39Y-3.1
X7.39Y-3.61
X7.39Y-3.69
X7.49Y-2.36
X7.49Y-2.44
X7.49Y-2.52
X7.49Y-2.6
X7.49Y-2.68
X7.49Y-2.76
X7.49Y-2.84
X7.49Y-2.92
X7.49Y-3.61
X7.49Y-3.69
X7.59Y-2.36
X7.59Y-2.44
X7.59Y-2.52
X7.59Y-2.6
X7.59Y-2.68
X7.59Y-2.76
X7.59Y-2.84
X7.59Y-2.92
T6
X6.28Y-2.51
X6.28Y-2.61
X6.28Y-2.71
X6.28Y-2.81
X6.28Y-2.91
X6.28Y-3.01
X6.28Y-3.11
X6.28Y-3.21
X6.28Y-3.33
X6.28Y-3.43
X6.28Y-3.53
X6.28Y-3.63
X6.4Y-2.51
X6.4Y-2.61
X6.4Y-2.71
X6.4Y-2.81
X6.4Y-2.91
X6.4Y-3.01
X6.4Y-3.11
X6.4Y-3.21
X6.4Y-3.33
X6.4Y-3.43
X6.4Y-3.53
X6.4Y-3.63
X6.57Y-2.32
X6.67Y-2.32
X6.85Y-2.32
X6.95Y-2.32
X7.05Y-2.32
X7.15Y-2.32
T0
M30
